<svg xmlns="http://www.w3.org/2000/svg" xmlns:xlink="http://www.w3.org/1999/xlink" width="200" zoomAndPan="magnify" viewBox="0 0 150 37.5" height="50" preserveAspectRatio="xMidYMid meet" version="1.0"><defs><g/><clipPath id="7f03c27f64"><path d="M 0.988281 0 L 149.011719 0 L 149.011719 37.007812 L 0.988281 37.007812 Z M 0.988281 0 " clip-rule="nonzero"/></clipPath><clipPath id="5726eb7a4d"><path d="M 7.691406 0.878906 L 42.476562 0.878906 L 42.476562 35.667969 L 7.691406 35.667969 Z M 7.691406 0.878906 " clip-rule="nonzero"/></clipPath></defs><g clip-path="url(#7f03c27f64)"><path fill="#ffffff" d="M 0.988281 0 L 149.011719 0 L 149.011719 37.007812 L 0.988281 37.007812 Z M 0.988281 0 " fill-opacity="1" fill-rule="nonzero"/><path fill="#ffffff" d="M 0.988281 0 L 149.011719 0 L 149.011719 37.007812 L 0.988281 37.007812 Z M 0.988281 0 " fill-opacity="1" fill-rule="nonzero"/></g><g fill="#00bf63" fill-opacity="1"><g transform="translate(48.689884, 21.207824)"><g><path d="M 6.6875 0.234375 C 5.175781 0.234375 3.984375 -0.0664062 3.109375 -0.671875 C 2.242188 -1.285156 1.664062 -2.140625 1.375 -3.234375 L 3.78125 -4.3125 L 4.03125 -4.265625 C 4.445312 -3.046875 5.320312 -2.4375 6.65625 -2.4375 C 7.695312 -2.4375 8.488281 -2.867188 9.03125 -3.734375 C 9.570312 -4.597656 9.84375 -5.894531 9.84375 -7.625 L 9.625 -7.703125 C 9.257812 -7.003906 8.785156 -6.476562 8.203125 -6.125 C 7.617188 -5.769531 6.859375 -5.59375 5.921875 -5.59375 C 4.972656 -5.59375 4.132812 -5.800781 3.40625 -6.21875 C 2.675781 -6.644531 2.109375 -7.25 1.703125 -8.03125 C 1.304688 -8.8125 1.109375 -9.734375 1.109375 -10.796875 C 1.109375 -11.890625 1.34375 -12.84375 1.8125 -13.65625 C 2.28125 -14.476562 2.941406 -15.109375 3.796875 -15.546875 C 4.660156 -15.992188 5.664062 -16.21875 6.8125 -16.21875 C 8.789062 -16.21875 10.332031 -15.59375 11.4375 -14.34375 C 12.550781 -13.09375 13.109375 -11.078125 13.109375 -8.296875 C 13.109375 -6.390625 12.847656 -4.800781 12.328125 -3.53125 C 11.816406 -2.257812 11.082031 -1.3125 10.125 -0.6875 C 9.164062 -0.0703125 8.019531 0.234375 6.6875 0.234375 Z M 6.90625 -8.171875 C 7.71875 -8.171875 8.363281 -8.410156 8.84375 -8.890625 C 9.320312 -9.378906 9.5625 -10.03125 9.5625 -10.84375 C 9.5625 -11.664062 9.320312 -12.316406 8.84375 -12.796875 C 8.375 -13.285156 7.726562 -13.53125 6.90625 -13.53125 C 6.082031 -13.53125 5.441406 -13.296875 4.984375 -12.828125 C 4.523438 -12.359375 4.296875 -11.695312 4.296875 -10.84375 C 4.296875 -10 4.523438 -9.34375 4.984375 -8.875 C 5.441406 -8.40625 6.082031 -8.171875 6.90625 -8.171875 Z M 6.90625 -8.171875 "/></g></g></g><g fill="#00bf63" fill-opacity="1"><g transform="translate(63.140467, 21.207824)"><g><path d="M 6.859375 0.234375 C 5.585938 0.234375 4.507812 0.0351562 3.625 -0.359375 C 2.75 -0.753906 2.085938 -1.316406 1.640625 -2.046875 C 1.203125 -2.773438 0.984375 -3.640625 0.984375 -4.640625 C 0.984375 -5.566406 1.210938 -6.367188 1.671875 -7.046875 C 2.128906 -7.722656 2.800781 -8.253906 3.6875 -8.640625 L 3.6875 -8.859375 C 3.0625 -9.253906 2.582031 -9.71875 2.25 -10.25 C 1.914062 -10.78125 1.75 -11.398438 1.75 -12.109375 C 1.75 -12.921875 1.945312 -13.632812 2.34375 -14.25 C 2.738281 -14.875 3.320312 -15.359375 4.09375 -15.703125 C 4.863281 -16.046875 5.785156 -16.21875 6.859375 -16.21875 C 7.929688 -16.21875 8.847656 -16.046875 9.609375 -15.703125 C 10.378906 -15.359375 10.960938 -14.875 11.359375 -14.25 C 11.753906 -13.632812 11.953125 -12.921875 11.953125 -12.109375 C 11.953125 -11.398438 11.785156 -10.78125 11.453125 -10.25 C 11.117188 -9.71875 10.632812 -9.253906 10 -8.859375 L 10 -8.640625 C 10.9375 -8.265625 11.625 -7.734375 12.0625 -7.046875 C 12.5 -6.367188 12.71875 -5.566406 12.71875 -4.640625 C 12.71875 -3.640625 12.492188 -2.773438 12.046875 -2.046875 C 11.597656 -1.316406 10.9375 -0.753906 10.0625 -0.359375 C 9.1875 0.0351562 8.117188 0.234375 6.859375 0.234375 Z M 6.859375 -9.765625 C 7.492188 -9.765625 8 -9.9375 8.375 -10.28125 C 8.75 -10.632812 8.9375 -11.117188 8.9375 -11.734375 C 8.9375 -12.367188 8.75 -12.863281 8.375 -13.21875 C 8 -13.570312 7.492188 -13.75 6.859375 -13.75 C 6.203125 -13.75 5.6875 -13.570312 5.3125 -13.21875 C 4.945312 -12.863281 4.765625 -12.367188 4.765625 -11.734375 C 4.765625 -11.109375 4.945312 -10.625 5.3125 -10.28125 C 5.6875 -9.9375 6.203125 -9.765625 6.859375 -9.765625 Z M 6.859375 -2.453125 C 7.710938 -2.453125 8.367188 -2.664062 8.828125 -3.09375 C 9.296875 -3.519531 9.53125 -4.113281 9.53125 -4.875 C 9.53125 -5.632812 9.296875 -6.226562 8.828125 -6.65625 C 8.367188 -7.082031 7.710938 -7.296875 6.859375 -7.296875 C 5.992188 -7.296875 5.328125 -7.082031 4.859375 -6.65625 C 4.398438 -6.226562 4.171875 -5.632812 4.171875 -4.875 C 4.171875 -4.113281 4.398438 -3.519531 4.859375 -3.09375 C 5.328125 -2.664062 5.992188 -2.453125 6.859375 -2.453125 Z M 6.859375 -2.453125 "/></g></g></g><g fill="#00bf63" fill-opacity="1"><g transform="translate(76.847752, 21.207824)"><g><path d="M 0.78125 -1.265625 C 0.78125 -2.148438 0.875 -2.894531 1.0625 -3.5 C 1.257812 -4.101562 1.578125 -4.65625 2.015625 -5.15625 C 2.453125 -5.65625 3.070312 -6.191406 3.875 -6.765625 L 6 -8.3125 C 6.582031 -8.726562 7.035156 -9.085938 7.359375 -9.390625 C 7.679688 -9.691406 7.925781 -10.007812 8.09375 -10.34375 C 8.257812 -10.6875 8.34375 -11.070312 8.34375 -11.5 C 8.34375 -12.144531 8.144531 -12.644531 7.75 -13 C 7.351562 -13.351562 6.765625 -13.53125 5.984375 -13.53125 C 5.222656 -13.53125 4.546875 -13.347656 3.953125 -12.984375 C 3.367188 -12.628906 2.882812 -12.140625 2.5 -11.515625 L 2.28125 -11.453125 L 0.546875 -13.40625 C 1.117188 -14.25 1.859375 -14.925781 2.765625 -15.4375 C 3.679688 -15.957031 4.789062 -16.21875 6.09375 -16.21875 C 7.289062 -16.21875 8.289062 -16.019531 9.09375 -15.625 C 9.90625 -15.226562 10.503906 -14.6875 10.890625 -14 C 11.285156 -13.320312 11.484375 -12.546875 11.484375 -11.671875 C 11.484375 -10.910156 11.320312 -10.210938 11 -9.578125 C 10.6875 -8.953125 10.25 -8.375 9.6875 -7.84375 C 9.125 -7.3125 8.40625 -6.742188 7.53125 -6.140625 L 5.640625 -4.8125 C 5.066406 -4.40625 4.664062 -4.039062 4.4375 -3.71875 C 4.21875 -3.40625 4.109375 -3.046875 4.109375 -2.640625 L 11.328125 -2.640625 L 11.328125 0 L 0.78125 0 Z M 0.78125 -1.265625 "/></g></g></g><g fill="#00bf63" fill-opacity="1"><g transform="translate(89.319852, 21.207824)"><g><path d="M 5.3125 0 L 2.09375 0 L 7.59375 -13.09375 L 7.53125 -13.328125 L 0.4375 -13.328125 L 0.4375 -15.984375 L 10.796875 -15.984375 L 10.796875 -13.1875 Z M 5.3125 0 "/></g></g></g><g fill="#00bf63" fill-opacity="1"><g transform="translate(100.655143, 21.207824)"><g><path d="M 6.65625 0.234375 C 5.0625 0.234375 3.796875 -0.0976562 2.859375 -0.765625 C 1.921875 -1.441406 1.3125 -2.382812 1.03125 -3.59375 L 3.421875 -4.640625 L 3.671875 -4.609375 C 3.898438 -3.898438 4.242188 -3.363281 4.703125 -3 C 5.171875 -2.644531 5.8125 -2.46875 6.625 -2.46875 C 7.457031 -2.46875 8.097656 -2.703125 8.546875 -3.171875 C 9.003906 -3.648438 9.234375 -4.359375 9.234375 -5.296875 C 9.234375 -6.234375 9.003906 -6.941406 8.546875 -7.421875 C 8.097656 -7.898438 7.488281 -8.140625 6.71875 -8.140625 C 6.132812 -8.140625 5.640625 -8.007812 5.234375 -7.75 C 4.835938 -7.5 4.503906 -7.125 4.234375 -6.625 L 1.625 -6.8125 L 1.953125 -15.984375 L 11.453125 -15.984375 L 11.453125 -13.328125 L 4.609375 -13.328125 L 4.453125 -9.25 L 4.671875 -9.203125 C 5.046875 -9.691406 5.492188 -10.0625 6.015625 -10.3125 C 6.535156 -10.5625 7.15625 -10.6875 7.875 -10.6875 C 8.789062 -10.6875 9.585938 -10.484375 10.265625 -10.078125 C 10.953125 -9.679688 11.476562 -9.082031 11.84375 -8.28125 C 12.21875 -7.476562 12.40625 -6.503906 12.40625 -5.359375 C 12.40625 -4.179688 12.179688 -3.175781 11.734375 -2.34375 C 11.285156 -1.507812 10.628906 -0.867188 9.765625 -0.421875 C 8.910156 0.015625 7.875 0.234375 6.65625 0.234375 Z M 6.65625 0.234375 "/></g></g></g><g fill="#00bf63" fill-opacity="1"><g transform="translate(114.121949, 21.207824)"><g><path d="M 6.6875 0.234375 C 5.175781 0.234375 3.984375 -0.0664062 3.109375 -0.671875 C 2.242188 -1.285156 1.664062 -2.140625 1.375 -3.234375 L 3.78125 -4.3125 L 4.03125 -4.265625 C 4.445312 -3.046875 5.320312 -2.4375 6.65625 -2.4375 C 7.695312 -2.4375 8.488281 -2.867188 9.03125 -3.734375 C 9.570312 -4.597656 9.84375 -5.894531 9.84375 -7.625 L 9.625 -7.703125 C 9.257812 -7.003906 8.785156 -6.476562 8.203125 -6.125 C 7.617188 -5.769531 6.859375 -5.59375 5.921875 -5.59375 C 4.972656 -5.59375 4.132812 -5.800781 3.40625 -6.21875 C 2.675781 -6.644531 2.109375 -7.25 1.703125 -8.03125 C 1.304688 -8.8125 1.109375 -9.734375 1.109375 -10.796875 C 1.109375 -11.890625 1.34375 -12.84375 1.8125 -13.65625 C 2.28125 -14.476562 2.941406 -15.109375 3.796875 -15.546875 C 4.660156 -15.992188 5.664062 -16.21875 6.8125 -16.21875 C 8.789062 -16.21875 10.332031 -15.59375 11.4375 -14.34375 C 12.550781 -13.09375 13.109375 -11.078125 13.109375 -8.296875 C 13.109375 -6.390625 12.847656 -4.800781 12.328125 -3.53125 C 11.816406 -2.257812 11.082031 -1.3125 10.125 -0.6875 C 9.164062 -0.0703125 8.019531 0.234375 6.6875 0.234375 Z M 6.90625 -8.171875 C 7.71875 -8.171875 8.363281 -8.410156 8.84375 -8.890625 C 9.320312 -9.378906 9.5625 -10.03125 9.5625 -10.84375 C 9.5625 -11.664062 9.320312 -12.316406 8.84375 -12.796875 C 8.375 -13.285156 7.726562 -13.53125 6.90625 -13.53125 C 6.082031 -13.53125 5.441406 -13.296875 4.984375 -12.828125 C 4.523438 -12.359375 4.296875 -11.695312 4.296875 -10.84375 C 4.296875 -10 4.523438 -9.34375 4.984375 -8.875 C 5.441406 -8.40625 6.082031 -8.171875 6.90625 -8.171875 Z M 6.90625 -8.171875 "/></g></g></g><g fill="#00bf63" fill-opacity="1"><g transform="translate(128.572533, 21.207824)"><g><path d="M 6.859375 0.234375 C 5.585938 0.234375 4.507812 0.0351562 3.625 -0.359375 C 2.75 -0.753906 2.085938 -1.316406 1.640625 -2.046875 C 1.203125 -2.773438 0.984375 -3.640625 0.984375 -4.640625 C 0.984375 -5.566406 1.210938 -6.367188 1.671875 -7.046875 C 2.128906 -7.722656 2.800781 -8.253906 3.6875 -8.640625 L 3.6875 -8.859375 C 3.0625 -9.253906 2.582031 -9.71875 2.25 -10.25 C 1.914062 -10.78125 1.75 -11.398438 1.75 -12.109375 C 1.75 -12.921875 1.945312 -13.632812 2.34375 -14.25 C 2.738281 -14.875 3.320312 -15.359375 4.09375 -15.703125 C 4.863281 -16.046875 5.785156 -16.21875 6.859375 -16.21875 C 7.929688 -16.21875 8.847656 -16.046875 9.609375 -15.703125 C 10.378906 -15.359375 10.960938 -14.875 11.359375 -14.25 C 11.753906 -13.632812 11.953125 -12.921875 11.953125 -12.109375 C 11.953125 -11.398438 11.785156 -10.78125 11.453125 -10.25 C 11.117188 -9.71875 10.632812 -9.253906 10 -8.859375 L 10 -8.640625 C 10.9375 -8.265625 11.625 -7.734375 12.0625 -7.046875 C 12.5 -6.367188 12.71875 -5.566406 12.71875 -4.640625 C 12.71875 -3.640625 12.492188 -2.773438 12.046875 -2.046875 C 11.597656 -1.316406 10.9375 -0.753906 10.0625 -0.359375 C 9.1875 0.0351562 8.117188 0.234375 6.859375 0.234375 Z M 6.859375 -9.765625 C 7.492188 -9.765625 8 -9.9375 8.375 -10.28125 C 8.75 -10.632812 8.9375 -11.117188 8.9375 -11.734375 C 8.9375 -12.367188 8.75 -12.863281 8.375 -13.21875 C 8 -13.570312 7.492188 -13.75 6.859375 -13.75 C 6.203125 -13.75 5.6875 -13.570312 5.3125 -13.21875 C 4.945312 -12.863281 4.765625 -12.367188 4.765625 -11.734375 C 4.765625 -11.109375 4.945312 -10.625 5.3125 -10.28125 C 5.6875 -9.9375 6.203125 -9.765625 6.859375 -9.765625 Z M 6.859375 -2.453125 C 7.710938 -2.453125 8.367188 -2.664062 8.828125 -3.09375 C 9.296875 -3.519531 9.53125 -4.113281 9.53125 -4.875 C 9.53125 -5.632812 9.296875 -6.226562 8.828125 -6.65625 C 8.367188 -7.082031 7.710938 -7.296875 6.859375 -7.296875 C 5.992188 -7.296875 5.328125 -7.082031 4.859375 -6.65625 C 4.398438 -6.226562 4.171875 -5.632812 4.171875 -4.875 C 4.171875 -4.113281 4.398438 -3.519531 4.859375 -3.09375 C 5.328125 -2.664062 5.992188 -2.453125 6.859375 -2.453125 Z M 6.859375 -2.453125 "/></g></g></g><path fill="#ffffff" d="M 30.945312 27.746094 C 29.394531 27.660156 27.71875 26.882812 26.402344 26.105469 C 24.59375 25.03125 22.898438 23.636719 21.410156 22.148438 C 19.941406 20.679688 18.566406 19.003906 17.511719 17.210938 C 16.742188 15.898438 15.980469 14.238281 15.894531 12.695312 L 15.882812 12.46875 L 18.464844 9.441406 C 18.660156 9.214844 18.90625 9.097656 19.203125 9.085938 C 19.5 9.074219 19.753906 9.175781 19.964844 9.382812 L 22.566406 11.984375 C 22.957031 12.375 22.964844 13.011719 22.582031 13.414062 L 20.9375 15.140625 C 20.851562 15.226562 20.832031 15.355469 20.886719 15.460938 C 22.15625 17.988281 25.652344 21.484375 28.179688 22.753906 C 28.285156 22.808594 28.417969 22.789062 28.503906 22.707031 L 30.230469 21.058594 C 30.628906 20.675781 31.265625 20.683594 31.65625 21.074219 L 34.257812 23.675781 C 34.46875 23.886719 34.566406 24.144531 34.554688 24.441406 C 34.542969 24.738281 34.425781 24.984375 34.199219 25.175781 L 31.171875 27.757812 Z M 30.945312 27.746094 " fill-opacity="1" fill-rule="evenodd"/><g clip-path="url(#5726eb7a4d)"><path fill="#00bf63" d="M 33.828125 24.746094 L 30.976562 27.179688 C 28.566406 27.046875 25.019531 24.953125 21.8125 21.746094 C 18.65625 18.589844 16.59375 15.070312 16.464844 12.664062 L 18.898438 9.8125 C 18.988281 9.707031 19.085938 9.660156 19.226562 9.652344 C 19.363281 9.648438 19.464844 9.6875 19.5625 9.785156 L 22.164062 12.386719 C 22.335938 12.558594 22.339844 12.84375 22.171875 13.019531 L 20.523438 14.746094 C 20.277344 15.007812 20.21875 15.394531 20.378906 15.714844 C 21.699219 18.347656 25.296875 21.941406 27.925781 23.261719 C 28.246094 23.421875 28.632812 23.363281 28.894531 23.117188 L 30.621094 21.46875 C 30.796875 21.300781 31.082031 21.304688 31.253906 21.476562 L 33.855469 24.078125 C 33.953125 24.175781 33.996094 24.277344 33.988281 24.417969 C 33.984375 24.554688 33.9375 24.652344 33.828125 24.746094 Z M 32.460938 20.273438 C 31.636719 19.449219 30.285156 19.433594 29.445312 20.238281 L 28.167969 21.453125 C 26.078125 20.207031 23.433594 17.5625 22.1875 15.472656 L 23.40625 14.195312 C 24.207031 13.355469 24.191406 12.003906 23.371094 11.183594 L 20.765625 8.578125 C 20.332031 8.144531 19.773438 7.925781 19.15625 7.949219 C 18.539062 7.972656 18 8.234375 17.601562 8.707031 L 14.957031 11.804688 C 14.828125 11.957031 14.757812 12.148438 14.753906 12.347656 C 14.730469 13.894531 15.304688 15.6875 16.460938 17.675781 C 17.484375 19.4375 18.917969 21.261719 20.609375 22.953125 C 23.488281 25.832031 27.773438 28.886719 31.210938 28.886719 C 31.238281 28.886719 31.265625 28.886719 31.296875 28.886719 C 31.492188 28.882812 31.683594 28.8125 31.835938 28.683594 L 34.933594 26.039062 C 35.40625 25.640625 35.667969 25.101562 35.691406 24.484375 C 35.714844 23.867188 35.496094 23.3125 35.0625 22.875 Z M 25.75 33.050781 C 34.148438 33.050781 40.980469 26.21875 40.980469 17.820312 C 40.980469 9.421875 34.148438 2.589844 25.75 2.589844 C 17.351562 2.589844 10.519531 9.421875 10.519531 17.820312 C 10.519531 21.578125 11.898438 25.1875 14.40625 27.980469 C 14.605469 28.203125 14.671875 28.511719 14.585938 28.796875 C 13.984375 30.78125 12.8125 32.59375 11.082031 34.207031 C 14.476562 34.039062 16.59375 33.355469 18.789062 31.84375 C 19.03125 31.675781 19.347656 31.644531 19.617188 31.761719 C 21.554688 32.617188 23.617188 33.050781 25.75 33.050781 Z M 37.722656 5.84375 C 34.523438 2.648438 30.273438 0.886719 25.75 0.886719 C 21.226562 0.886719 16.972656 2.648438 13.773438 5.84375 C 10.578125 9.042969 8.816406 13.296875 8.816406 17.820312 C 8.816406 21.832031 10.230469 25.691406 12.8125 28.742188 C 12.046875 30.882812 10.511719 32.738281 8.128906 34.394531 C 7.824219 34.609375 7.691406 34.992188 7.800781 35.347656 C 7.910156 35.699219 8.234375 35.941406 8.605469 35.949219 C 8.804688 35.949219 9 35.949219 9.191406 35.949219 C 13.859375 35.949219 16.628906 35.285156 19.363281 33.507812 C 21.390625 34.335938 23.539062 34.753906 25.75 34.753906 C 30.273438 34.753906 34.523438 32.992188 37.722656 29.792969 C 40.921875 26.59375 42.683594 22.34375 42.683594 17.820312 C 42.683594 13.296875 40.921875 9.042969 37.722656 5.84375 Z M 37.722656 5.84375 " fill-opacity="1" fill-rule="evenodd"/></g><g fill="#000000" fill-opacity="1"><g transform="translate(50.951502, 32.229264)"><g><path d="M 3.125 -5.25 C 3.375 -5.25 3.585938 -5.222656 3.765625 -5.171875 C 3.953125 -5.128906 4.128906 -5.070312 4.296875 -5 C 4.429688 -4.945312 4.519531 -4.921875 4.5625 -4.921875 C 4.625 -4.921875 4.679688 -4.953125 4.734375 -5.015625 C 4.785156 -5.078125 4.820312 -5.15625 4.84375 -5.25 L 4.984375 -5.25 L 5.109375 -3.515625 L 4.984375 -3.515625 C 4.929688 -3.816406 4.816406 -4.078125 4.640625 -4.296875 C 4.460938 -4.523438 4.242188 -4.691406 3.984375 -4.796875 C 3.734375 -4.910156 3.46875 -4.96875 3.1875 -4.96875 C 2.601562 -4.96875 2.132812 -4.757812 1.78125 -4.34375 C 1.425781 -3.925781 1.25 -3.296875 1.25 -2.453125 C 1.25 -1.953125 1.34375 -1.535156 1.53125 -1.203125 C 1.726562 -0.867188 1.984375 -0.617188 2.296875 -0.453125 C 2.609375 -0.285156 2.941406 -0.203125 3.296875 -0.203125 C 3.660156 -0.203125 4.003906 -0.296875 4.328125 -0.484375 C 4.660156 -0.671875 4.921875 -0.921875 5.109375 -1.234375 L 5.21875 -1.15625 C 4.71875 -0.3125 3.988281 0.109375 3.03125 0.109375 C 2.53125 0.109375 2.070312 -0.00390625 1.65625 -0.234375 C 1.25 -0.460938 0.921875 -0.773438 0.671875 -1.171875 C 0.429688 -1.578125 0.3125 -2.019531 0.3125 -2.5 C 0.3125 -3 0.4375 -3.457031 0.6875 -3.875 C 0.9375 -4.300781 1.273438 -4.632812 1.703125 -4.875 C 2.128906 -5.125 2.601562 -5.25 3.125 -5.25 Z M 3.125 -5.25 "/></g></g></g><g fill="#000000" fill-opacity="1"><g transform="translate(56.337913, 32.229264)"><g><path d="M 1.78125 -3.5625 C 2.53125 -3.5625 2.90625 -3.257812 2.90625 -2.65625 L 2.90625 -0.671875 C 2.90625 -0.535156 2.925781 -0.445312 2.96875 -0.40625 C 3.007812 -0.363281 3.0625 -0.34375 3.125 -0.34375 C 3.195312 -0.34375 3.265625 -0.363281 3.328125 -0.40625 C 3.398438 -0.445312 3.5 -0.53125 3.625 -0.65625 L 3.625 -0.46875 C 3.4375 -0.25 3.28125 -0.0976562 3.15625 -0.015625 C 3.03125 0.0664062 2.90625 0.109375 2.78125 0.109375 C 2.632812 0.109375 2.515625 0.0546875 2.421875 -0.046875 C 2.335938 -0.148438 2.296875 -0.300781 2.296875 -0.5 C 2.078125 -0.289062 1.875 -0.132812 1.6875 -0.03125 C 1.5 0.0625 1.296875 0.109375 1.078125 0.109375 C 0.859375 0.109375 0.671875 0.0234375 0.515625 -0.140625 C 0.367188 -0.304688 0.296875 -0.503906 0.296875 -0.734375 C 0.296875 -1.140625 0.507812 -1.453125 0.9375 -1.671875 C 1.34375 -1.878906 1.796875 -2.078125 2.296875 -2.265625 L 2.296875 -2.46875 C 2.296875 -2.664062 2.28125 -2.820312 2.25 -2.9375 C 2.226562 -3.0625 2.164062 -3.160156 2.0625 -3.234375 C 1.96875 -3.304688 1.820312 -3.34375 1.625 -3.34375 C 1.425781 -3.34375 1.28125 -3.296875 1.1875 -3.203125 C 1.09375 -3.109375 1.046875 -2.992188 1.046875 -2.859375 L 1.0625 -2.65625 C 1.0625 -2.570312 1.03125 -2.5 0.96875 -2.4375 C 0.914062 -2.382812 0.847656 -2.359375 0.765625 -2.359375 C 0.671875 -2.359375 0.59375 -2.382812 0.53125 -2.4375 C 0.46875 -2.5 0.4375 -2.578125 0.4375 -2.671875 C 0.4375 -2.921875 0.550781 -3.128906 0.78125 -3.296875 C 1.019531 -3.472656 1.351562 -3.5625 1.78125 -3.5625 Z M 0.9375 -0.9375 C 0.9375 -0.769531 0.988281 -0.625 1.09375 -0.5 C 1.195312 -0.382812 1.332031 -0.328125 1.5 -0.328125 C 1.75 -0.328125 2.015625 -0.453125 2.296875 -0.703125 L 2.296875 -2.0625 C 1.953125 -1.914062 1.679688 -1.785156 1.484375 -1.671875 C 1.296875 -1.566406 1.15625 -1.457031 1.0625 -1.34375 C 0.976562 -1.226562 0.9375 -1.09375 0.9375 -0.9375 Z M 0.9375 -0.9375 "/></g></g></g><g fill="#000000" fill-opacity="1"><g transform="translate(60.083678, 32.229264)"><g><path d="M 1.359375 -5.359375 L 1.359375 -0.78125 C 1.359375 -0.53125 1.394531 -0.359375 1.46875 -0.265625 C 1.539062 -0.179688 1.671875 -0.140625 1.859375 -0.140625 L 1.859375 0 L 0.171875 0 L 0.171875 -0.140625 C 0.304688 -0.140625 0.414062 -0.148438 0.5 -0.171875 C 0.582031 -0.203125 0.640625 -0.265625 0.671875 -0.359375 C 0.710938 -0.460938 0.734375 -0.601562 0.734375 -0.78125 L 0.734375 -4.328125 C 0.734375 -4.660156 0.617188 -4.828125 0.390625 -4.828125 C 0.328125 -4.828125 0.269531 -4.816406 0.21875 -4.796875 L 0.171875 -4.921875 L 1.21875 -5.359375 Z M 1.359375 -5.359375 "/></g></g></g><g fill="#000000" fill-opacity="1"><g transform="translate(62.113885, 32.229264)"><g><path d="M 1.359375 -5.359375 L 1.359375 -0.78125 C 1.359375 -0.53125 1.394531 -0.359375 1.46875 -0.265625 C 1.539062 -0.179688 1.671875 -0.140625 1.859375 -0.140625 L 1.859375 0 L 0.171875 0 L 0.171875 -0.140625 C 0.304688 -0.140625 0.414062 -0.148438 0.5 -0.171875 C 0.582031 -0.203125 0.640625 -0.265625 0.671875 -0.359375 C 0.710938 -0.460938 0.734375 -0.601562 0.734375 -0.78125 L 0.734375 -4.328125 C 0.734375 -4.660156 0.617188 -4.828125 0.390625 -4.828125 C 0.328125 -4.828125 0.269531 -4.816406 0.21875 -4.796875 L 0.171875 -4.921875 L 1.21875 -5.359375 Z M 1.359375 -5.359375 "/></g></g></g><g fill="#000000" fill-opacity="1"><g transform="translate(64.144093, 32.229264)"><g/></g></g><g fill="#000000" fill-opacity="1"><g transform="translate(66.01697, 32.229264)"><g><path d="M 2.140625 -3.5625 C 2.429688 -3.5625 2.703125 -3.476562 2.953125 -3.3125 C 3.210938 -3.15625 3.414062 -2.945312 3.5625 -2.6875 C 3.71875 -2.425781 3.796875 -2.144531 3.796875 -1.84375 C 3.796875 -1.5 3.710938 -1.175781 3.546875 -0.875 C 3.390625 -0.570312 3.171875 -0.332031 2.890625 -0.15625 C 2.617188 0.0195312 2.320312 0.109375 2 0.109375 C 1.707031 0.109375 1.429688 0.03125 1.171875 -0.125 C 0.910156 -0.28125 0.707031 -0.492188 0.5625 -0.765625 C 0.414062 -1.035156 0.34375 -1.328125 0.34375 -1.640625 C 0.34375 -1.972656 0.421875 -2.285156 0.578125 -2.578125 C 0.742188 -2.878906 0.960938 -3.117188 1.234375 -3.296875 C 1.515625 -3.472656 1.816406 -3.5625 2.140625 -3.5625 Z M 1.015625 -1.9375 C 1.015625 -1.644531 1.054688 -1.363281 1.140625 -1.09375 C 1.234375 -0.820312 1.367188 -0.597656 1.546875 -0.421875 C 1.722656 -0.242188 1.929688 -0.15625 2.171875 -0.15625 C 2.460938 -0.15625 2.691406 -0.28125 2.859375 -0.53125 C 3.035156 -0.78125 3.125 -1.113281 3.125 -1.53125 C 3.125 -1.863281 3.070312 -2.160156 2.96875 -2.421875 C 2.875 -2.691406 2.738281 -2.90625 2.5625 -3.0625 C 2.382812 -3.21875 2.179688 -3.296875 1.953125 -3.296875 C 1.660156 -3.296875 1.429688 -3.171875 1.265625 -2.921875 C 1.097656 -2.679688 1.015625 -2.351562 1.015625 -1.9375 Z M 1.015625 -1.9375 "/></g></g></g><g fill="#000000" fill-opacity="1"><g transform="translate(70.152297, 32.229264)"><g><path d="M 1.390625 -2.859375 L 1.40625 -2.859375 C 1.53125 -3.085938 1.664062 -3.257812 1.8125 -3.375 C 1.96875 -3.5 2.140625 -3.5625 2.328125 -3.5625 C 2.460938 -3.5625 2.570312 -3.519531 2.65625 -3.4375 C 2.75 -3.351562 2.796875 -3.25 2.796875 -3.125 C 2.796875 -3.03125 2.757812 -2.953125 2.6875 -2.890625 C 2.625 -2.828125 2.550781 -2.796875 2.46875 -2.796875 C 2.394531 -2.796875 2.332031 -2.804688 2.28125 -2.828125 C 2.238281 -2.859375 2.195312 -2.894531 2.15625 -2.9375 C 2.144531 -2.945312 2.125 -2.960938 2.09375 -2.984375 C 2.070312 -3.015625 2.046875 -3.035156 2.015625 -3.046875 C 1.992188 -3.054688 1.96875 -3.0625 1.9375 -3.0625 C 1.820312 -3.0625 1.722656 -3.015625 1.640625 -2.921875 C 1.554688 -2.828125 1.472656 -2.703125 1.390625 -2.546875 L 1.390625 -0.796875 C 1.390625 -0.597656 1.410156 -0.453125 1.453125 -0.359375 C 1.492188 -0.265625 1.554688 -0.203125 1.640625 -0.171875 C 1.734375 -0.148438 1.867188 -0.140625 2.046875 -0.140625 L 2.046875 0 L 0.203125 0 L 0.203125 -0.140625 L 0.234375 -0.140625 C 0.421875 -0.140625 0.554688 -0.179688 0.640625 -0.265625 C 0.722656 -0.359375 0.765625 -0.523438 0.765625 -0.765625 L 0.765625 -2.46875 C 0.765625 -2.707031 0.738281 -2.859375 0.6875 -2.921875 C 0.644531 -2.992188 0.5625 -3.03125 0.4375 -3.03125 C 0.363281 -3.03125 0.300781 -3.019531 0.25 -3 L 0.203125 -3.125 L 1.25 -3.5625 L 1.390625 -3.5625 Z M 1.390625 -2.859375 "/></g></g></g><g fill="#000000" fill-opacity="1"><g transform="translate(73.03653, 32.229264)"><g/></g></g><g fill="#000000" fill-opacity="1"><g transform="translate(74.909408, 32.229264)"><g><path d="M 1.3125 -3.5625 L 1.3125 -2.84375 C 1.738281 -3.320312 2.128906 -3.5625 2.484375 -3.5625 C 2.710938 -3.5625 2.898438 -3.492188 3.046875 -3.359375 C 3.191406 -3.234375 3.289062 -3.046875 3.34375 -2.796875 C 3.726562 -3.304688 4.144531 -3.5625 4.59375 -3.5625 C 4.914062 -3.5625 5.144531 -3.441406 5.28125 -3.203125 C 5.425781 -2.972656 5.5 -2.707031 5.5 -2.40625 L 5.5 -0.796875 C 5.5 -0.609375 5.515625 -0.46875 5.546875 -0.375 C 5.585938 -0.28125 5.648438 -0.21875 5.734375 -0.1875 C 5.816406 -0.15625 5.925781 -0.140625 6.0625 -0.140625 L 6.0625 0 L 4.296875 0 L 4.296875 -0.140625 C 4.453125 -0.140625 4.570312 -0.148438 4.65625 -0.171875 C 4.738281 -0.203125 4.796875 -0.265625 4.828125 -0.359375 C 4.867188 -0.460938 4.890625 -0.613281 4.890625 -0.8125 L 4.890625 -2.46875 C 4.890625 -2.644531 4.835938 -2.796875 4.734375 -2.921875 C 4.628906 -3.046875 4.476562 -3.109375 4.28125 -3.109375 C 4.125 -3.109375 3.960938 -3.066406 3.796875 -2.984375 C 3.628906 -2.898438 3.492188 -2.785156 3.390625 -2.640625 L 3.40625 -2.203125 L 3.40625 -0.796875 C 3.40625 -0.609375 3.425781 -0.46875 3.46875 -0.375 C 3.507812 -0.28125 3.566406 -0.21875 3.640625 -0.1875 C 3.710938 -0.15625 3.820312 -0.140625 3.96875 -0.140625 L 3.96875 0 L 2.203125 0 L 2.203125 -0.140625 C 2.359375 -0.140625 2.472656 -0.148438 2.546875 -0.171875 C 2.628906 -0.203125 2.691406 -0.265625 2.734375 -0.359375 C 2.773438 -0.453125 2.796875 -0.597656 2.796875 -0.796875 L 2.796875 -2.40625 C 2.796875 -2.582031 2.742188 -2.742188 2.640625 -2.890625 C 2.546875 -3.035156 2.394531 -3.109375 2.1875 -3.109375 C 2.0625 -3.109375 1.921875 -3.066406 1.765625 -2.984375 C 1.609375 -2.910156 1.457031 -2.800781 1.3125 -2.65625 L 1.3125 -0.796875 C 1.3125 -0.535156 1.347656 -0.359375 1.421875 -0.265625 C 1.503906 -0.179688 1.632812 -0.140625 1.8125 -0.140625 L 1.859375 -0.140625 L 1.859375 0 L 0.109375 0 L 0.109375 -0.140625 C 0.265625 -0.140625 0.378906 -0.148438 0.453125 -0.171875 C 0.535156 -0.203125 0.597656 -0.265625 0.640625 -0.359375 C 0.679688 -0.460938 0.703125 -0.609375 0.703125 -0.796875 L 0.703125 -2.5625 C 0.703125 -2.707031 0.671875 -2.828125 0.609375 -2.921875 C 0.546875 -3.015625 0.453125 -3.0625 0.328125 -3.0625 C 0.242188 -3.0625 0.171875 -3.050781 0.109375 -3.03125 L 0.0625 -3.15625 L 1.1875 -3.5625 Z M 1.3125 -3.5625 "/></g></g></g><g fill="#000000" fill-opacity="1"><g transform="translate(81.074932, 32.229264)"><g><path d="M 1.765625 -3.5625 C 2.148438 -3.5625 2.460938 -3.429688 2.703125 -3.171875 C 2.941406 -2.910156 3.0625 -2.570312 3.0625 -2.15625 L 0.71875 -2.15625 L 0.71875 -2.0625 C 0.71875 -1.789062 0.769531 -1.535156 0.875 -1.296875 C 0.976562 -1.054688 1.125 -0.859375 1.3125 -0.703125 C 1.507812 -0.554688 1.722656 -0.484375 1.953125 -0.484375 C 2.429688 -0.484375 2.765625 -0.75 2.953125 -1.28125 L 3.0625 -1.21875 C 2.988281 -0.8125 2.828125 -0.488281 2.578125 -0.25 C 2.328125 -0.0078125 2.023438 0.109375 1.671875 0.109375 C 1.410156 0.109375 1.171875 0.0390625 0.953125 -0.09375 C 0.734375 -0.226562 0.550781 -0.429688 0.40625 -0.703125 C 0.269531 -0.972656 0.203125 -1.300781 0.203125 -1.6875 C 0.203125 -2.050781 0.265625 -2.375 0.390625 -2.65625 C 0.523438 -2.945312 0.707031 -3.171875 0.9375 -3.328125 C 1.175781 -3.484375 1.453125 -3.5625 1.765625 -3.5625 Z M 1.546875 -3.296875 C 1.335938 -3.296875 1.15625 -3.210938 1 -3.046875 C 0.851562 -2.878906 0.765625 -2.660156 0.734375 -2.390625 L 2.296875 -2.390625 C 2.285156 -2.660156 2.21875 -2.878906 2.09375 -3.046875 C 1.96875 -3.210938 1.785156 -3.296875 1.546875 -3.296875 Z M 1.546875 -3.296875 "/></g></g></g><g fill="#000000" fill-opacity="1"><g transform="translate(84.356224, 32.229264)"><g><path d="M 1.40625 -3.5625 C 1.550781 -3.5625 1.695312 -3.535156 1.84375 -3.484375 C 1.945312 -3.441406 2.035156 -3.421875 2.109375 -3.421875 C 2.148438 -3.421875 2.195312 -3.4375 2.25 -3.46875 L 2.375 -3.46875 L 2.375 -2.421875 L 2.25 -2.421875 C 2.207031 -2.691406 2.109375 -2.910156 1.953125 -3.078125 C 1.796875 -3.253906 1.609375 -3.34375 1.390625 -3.34375 C 1.210938 -3.34375 1.066406 -3.300781 0.953125 -3.21875 C 0.847656 -3.132812 0.796875 -3.019531 0.796875 -2.875 C 0.796875 -2.757812 0.828125 -2.660156 0.890625 -2.578125 C 0.953125 -2.492188 1.035156 -2.414062 1.140625 -2.34375 C 1.253906 -2.28125 1.429688 -2.1875 1.671875 -2.0625 C 1.984375 -1.894531 2.222656 -1.726562 2.390625 -1.5625 C 2.554688 -1.40625 2.640625 -1.191406 2.640625 -0.921875 C 2.640625 -0.679688 2.578125 -0.484375 2.453125 -0.328125 C 2.328125 -0.179688 2.175781 -0.0703125 2 0 C 1.832031 0.0703125 1.671875 0.109375 1.515625 0.109375 C 1.367188 0.109375 1.164062 0.0703125 0.90625 0 C 0.789062 -0.03125 0.71875 -0.046875 0.6875 -0.046875 C 0.613281 -0.046875 0.566406 -0.03125 0.546875 0 L 0.390625 0 L 0.390625 -1.171875 L 0.515625 -1.171875 C 0.546875 -0.859375 0.65625 -0.601562 0.84375 -0.40625 C 1.039062 -0.21875 1.269531 -0.125 1.53125 -0.125 C 1.6875 -0.125 1.820312 -0.171875 1.9375 -0.265625 C 2.050781 -0.367188 2.109375 -0.5 2.109375 -0.65625 C 2.109375 -0.820312 2.054688 -0.957031 1.953125 -1.0625 C 1.847656 -1.164062 1.734375 -1.25 1.609375 -1.3125 C 1.492188 -1.382812 1.414062 -1.429688 1.375 -1.453125 C 1.351562 -1.472656 1.285156 -1.515625 1.171875 -1.578125 C 0.984375 -1.679688 0.835938 -1.769531 0.734375 -1.84375 C 0.628906 -1.914062 0.539062 -2.015625 0.46875 -2.140625 C 0.394531 -2.265625 0.359375 -2.421875 0.359375 -2.609375 C 0.359375 -2.890625 0.457031 -3.117188 0.65625 -3.296875 C 0.851562 -3.472656 1.101562 -3.5625 1.40625 -3.5625 Z M 1.40625 -3.5625 "/></g></g></g><g fill="#000000" fill-opacity="1"><g transform="translate(87.240456, 32.229264)"><g><path d="M 1.40625 -3.5625 C 1.550781 -3.5625 1.695312 -3.535156 1.84375 -3.484375 C 1.945312 -3.441406 2.035156 -3.421875 2.109375 -3.421875 C 2.148438 -3.421875 2.195312 -3.4375 2.25 -3.46875 L 2.375 -3.46875 L 2.375 -2.421875 L 2.25 -2.421875 C 2.207031 -2.691406 2.109375 -2.910156 1.953125 -3.078125 C 1.796875 -3.253906 1.609375 -3.34375 1.390625 -3.34375 C 1.210938 -3.34375 1.066406 -3.300781 0.953125 -3.21875 C 0.847656 -3.132812 0.796875 -3.019531 0.796875 -2.875 C 0.796875 -2.757812 0.828125 -2.660156 0.890625 -2.578125 C 0.953125 -2.492188 1.035156 -2.414062 1.140625 -2.34375 C 1.253906 -2.28125 1.429688 -2.1875 1.671875 -2.0625 C 1.984375 -1.894531 2.222656 -1.726562 2.390625 -1.5625 C 2.554688 -1.40625 2.640625 -1.191406 2.640625 -0.921875 C 2.640625 -0.679688 2.578125 -0.484375 2.453125 -0.328125 C 2.328125 -0.179688 2.175781 -0.0703125 2 0 C 1.832031 0.0703125 1.671875 0.109375 1.515625 0.109375 C 1.367188 0.109375 1.164062 0.0703125 0.90625 0 C 0.789062 -0.03125 0.71875 -0.046875 0.6875 -0.046875 C 0.613281 -0.046875 0.566406 -0.03125 0.546875 0 L 0.390625 0 L 0.390625 -1.171875 L 0.515625 -1.171875 C 0.546875 -0.859375 0.65625 -0.601562 0.84375 -0.40625 C 1.039062 -0.21875 1.269531 -0.125 1.53125 -0.125 C 1.6875 -0.125 1.820312 -0.171875 1.9375 -0.265625 C 2.050781 -0.367188 2.109375 -0.5 2.109375 -0.65625 C 2.109375 -0.820312 2.054688 -0.957031 1.953125 -1.0625 C 1.847656 -1.164062 1.734375 -1.25 1.609375 -1.3125 C 1.492188 -1.382812 1.414062 -1.429688 1.375 -1.453125 C 1.351562 -1.472656 1.285156 -1.515625 1.171875 -1.578125 C 0.984375 -1.679688 0.835938 -1.769531 0.734375 -1.84375 C 0.628906 -1.914062 0.539062 -2.015625 0.46875 -2.140625 C 0.394531 -2.265625 0.359375 -2.421875 0.359375 -2.609375 C 0.359375 -2.890625 0.457031 -3.117188 0.65625 -3.296875 C 0.851562 -3.472656 1.101562 -3.5625 1.40625 -3.5625 Z M 1.40625 -3.5625 "/></g></g></g><g fill="#000000" fill-opacity="1"><g transform="translate(90.124689, 32.229264)"><g><path d="M 1.78125 -3.5625 C 2.53125 -3.5625 2.90625 -3.257812 2.90625 -2.65625 L 2.90625 -0.671875 C 2.90625 -0.535156 2.925781 -0.445312 2.96875 -0.40625 C 3.007812 -0.363281 3.0625 -0.34375 3.125 -0.34375 C 3.195312 -0.34375 3.265625 -0.363281 3.328125 -0.40625 C 3.398438 -0.445312 3.5 -0.53125 3.625 -0.65625 L 3.625 -0.46875 C 3.4375 -0.25 3.28125 -0.0976562 3.15625 -0.015625 C 3.03125 0.0664062 2.90625 0.109375 2.78125 0.109375 C 2.632812 0.109375 2.515625 0.0546875 2.421875 -0.046875 C 2.335938 -0.148438 2.296875 -0.300781 2.296875 -0.5 C 2.078125 -0.289062 1.875 -0.132812 1.6875 -0.03125 C 1.5 0.0625 1.296875 0.109375 1.078125 0.109375 C 0.859375 0.109375 0.671875 0.0234375 0.515625 -0.140625 C 0.367188 -0.304688 0.296875 -0.503906 0.296875 -0.734375 C 0.296875 -1.140625 0.507812 -1.453125 0.9375 -1.671875 C 1.34375 -1.878906 1.796875 -2.078125 2.296875 -2.265625 L 2.296875 -2.46875 C 2.296875 -2.664062 2.28125 -2.820312 2.25 -2.9375 C 2.226562 -3.0625 2.164062 -3.160156 2.0625 -3.234375 C 1.96875 -3.304688 1.820312 -3.34375 1.625 -3.34375 C 1.425781 -3.34375 1.28125 -3.296875 1.1875 -3.203125 C 1.09375 -3.109375 1.046875 -2.992188 1.046875 -2.859375 L 1.0625 -2.65625 C 1.0625 -2.570312 1.03125 -2.5 0.96875 -2.4375 C 0.914062 -2.382812 0.847656 -2.359375 0.765625 -2.359375 C 0.671875 -2.359375 0.59375 -2.382812 0.53125 -2.4375 C 0.46875 -2.5 0.4375 -2.578125 0.4375 -2.671875 C 0.4375 -2.921875 0.550781 -3.128906 0.78125 -3.296875 C 1.019531 -3.472656 1.351562 -3.5625 1.78125 -3.5625 Z M 0.9375 -0.9375 C 0.9375 -0.769531 0.988281 -0.625 1.09375 -0.5 C 1.195312 -0.382812 1.332031 -0.328125 1.5 -0.328125 C 1.75 -0.328125 2.015625 -0.453125 2.296875 -0.703125 L 2.296875 -2.0625 C 1.953125 -1.914062 1.679688 -1.785156 1.484375 -1.671875 C 1.296875 -1.566406 1.15625 -1.457031 1.0625 -1.34375 C 0.976562 -1.226562 0.9375 -1.09375 0.9375 -0.9375 Z M 0.9375 -0.9375 "/></g></g></g><g fill="#000000" fill-opacity="1"><g transform="translate(93.870454, 32.229264)"><g><path d="M 1.90625 -3.5625 C 2.175781 -3.5625 2.429688 -3.488281 2.671875 -3.34375 L 3.484375 -3.34375 C 3.554688 -3.34375 3.597656 -3.332031 3.609375 -3.3125 C 3.617188 -3.289062 3.625 -3.238281 3.625 -3.15625 C 3.625 -3.070312 3.617188 -3.019531 3.609375 -3 C 3.597656 -2.988281 3.570312 -2.984375 3.53125 -2.984375 L 2.953125 -2.984375 C 3.023438 -2.878906 3.078125 -2.773438 3.109375 -2.671875 C 3.140625 -2.578125 3.15625 -2.46875 3.15625 -2.34375 C 3.15625 -2.113281 3.097656 -1.90625 2.984375 -1.71875 C 2.878906 -1.539062 2.726562 -1.398438 2.53125 -1.296875 C 2.332031 -1.203125 2.109375 -1.15625 1.859375 -1.15625 C 1.691406 -1.15625 1.523438 -1.179688 1.359375 -1.234375 C 1.160156 -1.046875 1.0625 -0.894531 1.0625 -0.78125 C 1.0625 -0.71875 1.097656 -0.664062 1.171875 -0.625 C 1.242188 -0.582031 1.394531 -0.5625 1.625 -0.5625 L 2.484375 -0.5625 C 2.773438 -0.5625 3.03125 -0.492188 3.25 -0.359375 C 3.476562 -0.234375 3.59375 -0.046875 3.59375 0.203125 C 3.59375 0.441406 3.503906 0.664062 3.328125 0.875 C 3.148438 1.09375 2.910156 1.265625 2.609375 1.390625 C 2.316406 1.523438 2 1.59375 1.65625 1.59375 C 1.425781 1.59375 1.203125 1.554688 0.984375 1.484375 C 0.765625 1.421875 0.582031 1.332031 0.4375 1.21875 C 0.300781 1.113281 0.234375 1.003906 0.234375 0.890625 C 0.234375 0.785156 0.28125 0.664062 0.375 0.53125 C 0.46875 0.40625 0.660156 0.195312 0.953125 -0.09375 C 0.703125 -0.164062 0.578125 -0.289062 0.578125 -0.46875 C 0.578125 -0.601562 0.628906 -0.738281 0.734375 -0.875 C 0.835938 -1.007812 0.984375 -1.148438 1.171875 -1.296875 C 0.972656 -1.398438 0.816406 -1.539062 0.703125 -1.71875 C 0.597656 -1.90625 0.546875 -2.109375 0.546875 -2.328125 C 0.546875 -2.554688 0.601562 -2.765625 0.71875 -2.953125 C 0.832031 -3.140625 0.992188 -3.285156 1.203125 -3.390625 C 1.410156 -3.503906 1.644531 -3.5625 1.90625 -3.5625 Z M 1.1875 -2.640625 C 1.1875 -2.453125 1.207031 -2.257812 1.25 -2.0625 C 1.300781 -1.863281 1.382812 -1.691406 1.5 -1.546875 C 1.625 -1.410156 1.78125 -1.34375 1.96875 -1.34375 C 2.132812 -1.34375 2.265625 -1.421875 2.359375 -1.578125 C 2.460938 -1.734375 2.515625 -1.929688 2.515625 -2.171875 C 2.515625 -2.328125 2.484375 -2.492188 2.421875 -2.671875 C 2.367188 -2.859375 2.285156 -3.015625 2.171875 -3.140625 C 2.054688 -3.273438 1.910156 -3.34375 1.734375 -3.34375 C 1.585938 -3.34375 1.457031 -3.28125 1.34375 -3.15625 C 1.238281 -3.03125 1.1875 -2.859375 1.1875 -2.640625 Z M 2.3125 0 L 2.046875 0 C 1.816406 0 1.628906 0 1.484375 0 C 1.347656 -0.0078125 1.226562 -0.03125 1.125 -0.0625 C 1.007812 0.0703125 0.921875 0.1875 0.859375 0.28125 C 0.804688 0.382812 0.78125 0.484375 0.78125 0.578125 C 0.78125 0.765625 0.90625 0.90625 1.15625 1 C 1.40625 1.09375 1.703125 1.140625 2.046875 1.140625 C 2.296875 1.140625 2.519531 1.101562 2.71875 1.03125 C 2.925781 0.96875 3.085938 0.878906 3.203125 0.765625 C 3.316406 0.648438 3.375 0.523438 3.375 0.390625 C 3.375 0.234375 3.285156 0.128906 3.109375 0.078125 C 2.941406 0.0351562 2.675781 0.0078125 2.3125 0 Z M 2.3125 0 "/></g></g></g><g fill="#000000" fill-opacity="1"><g transform="translate(97.616219, 32.229264)"><g><path d="M 1.765625 -3.5625 C 2.148438 -3.5625 2.460938 -3.429688 2.703125 -3.171875 C 2.941406 -2.910156 3.0625 -2.570312 3.0625 -2.15625 L 0.71875 -2.15625 L 0.71875 -2.0625 C 0.71875 -1.789062 0.769531 -1.535156 0.875 -1.296875 C 0.976562 -1.054688 1.125 -0.859375 1.3125 -0.703125 C 1.507812 -0.554688 1.722656 -0.484375 1.953125 -0.484375 C 2.429688 -0.484375 2.765625 -0.75 2.953125 -1.28125 L 3.0625 -1.21875 C 2.988281 -0.8125 2.828125 -0.488281 2.578125 -0.25 C 2.328125 -0.0078125 2.023438 0.109375 1.671875 0.109375 C 1.410156 0.109375 1.171875 0.0390625 0.953125 -0.09375 C 0.734375 -0.226562 0.550781 -0.429688 0.40625 -0.703125 C 0.269531 -0.972656 0.203125 -1.300781 0.203125 -1.6875 C 0.203125 -2.050781 0.265625 -2.375 0.390625 -2.65625 C 0.523438 -2.945312 0.707031 -3.171875 0.9375 -3.328125 C 1.175781 -3.484375 1.453125 -3.5625 1.765625 -3.5625 Z M 1.546875 -3.296875 C 1.335938 -3.296875 1.15625 -3.210938 1 -3.046875 C 0.851562 -2.878906 0.765625 -2.660156 0.734375 -2.390625 L 2.296875 -2.390625 C 2.285156 -2.660156 2.21875 -2.878906 2.09375 -3.046875 C 1.96875 -3.210938 1.785156 -3.296875 1.546875 -3.296875 Z M 1.546875 -3.296875 "/></g></g></g><g fill="#000000" fill-opacity="1"><g transform="translate(100.897511, 32.229264)"><g/></g></g><g fill="#000000" fill-opacity="1"><g transform="translate(102.770388, 32.229264)"><g><path d="M 1.375 -0.984375 C 1.375 -0.804688 1.425781 -0.660156 1.53125 -0.546875 C 1.644531 -0.429688 1.785156 -0.375 1.953125 -0.375 C 2.085938 -0.375 2.234375 -0.410156 2.390625 -0.484375 C 2.546875 -0.566406 2.695312 -0.679688 2.84375 -0.828125 L 2.84375 -2.90625 C 2.84375 -3.195312 2.671875 -3.34375 2.328125 -3.34375 L 2.25 -3.34375 L 2.25 -3.46875 L 3.453125 -3.46875 L 3.453125 -0.8125 C 3.453125 -0.71875 3.476562 -0.625 3.53125 -0.53125 C 3.582031 -0.4375 3.664062 -0.390625 3.78125 -0.390625 C 3.84375 -0.390625 3.925781 -0.410156 4.03125 -0.453125 L 4.03125 -0.3125 L 2.984375 0.09375 L 2.84375 0.09375 L 2.84375 -0.640625 L 2.828125 -0.640625 C 2.421875 -0.140625 2.03125 0.109375 1.65625 0.109375 C 1.46875 0.109375 1.304688 0.0625 1.171875 -0.03125 C 1.035156 -0.132812 0.929688 -0.257812 0.859375 -0.40625 C 0.796875 -0.5625 0.765625 -0.71875 0.765625 -0.875 L 0.765625 -2.84375 C 0.765625 -3.039062 0.71875 -3.171875 0.625 -3.234375 C 0.539062 -3.304688 0.40625 -3.34375 0.21875 -3.34375 L 0.140625 -3.34375 L 0.140625 -3.46875 L 1.375 -3.46875 Z M 1.375 -0.984375 "/></g></g></g><g fill="#000000" fill-opacity="1"><g transform="translate(106.905715, 32.229264)"><g><path d="M 1.40625 -3.5625 C 1.550781 -3.5625 1.695312 -3.535156 1.84375 -3.484375 C 1.945312 -3.441406 2.035156 -3.421875 2.109375 -3.421875 C 2.148438 -3.421875 2.195312 -3.4375 2.25 -3.46875 L 2.375 -3.46875 L 2.375 -2.421875 L 2.25 -2.421875 C 2.207031 -2.691406 2.109375 -2.910156 1.953125 -3.078125 C 1.796875 -3.253906 1.609375 -3.34375 1.390625 -3.34375 C 1.210938 -3.34375 1.066406 -3.300781 0.953125 -3.21875 C 0.847656 -3.132812 0.796875 -3.019531 0.796875 -2.875 C 0.796875 -2.757812 0.828125 -2.660156 0.890625 -2.578125 C 0.953125 -2.492188 1.035156 -2.414062 1.140625 -2.34375 C 1.253906 -2.28125 1.429688 -2.1875 1.671875 -2.0625 C 1.984375 -1.894531 2.222656 -1.726562 2.390625 -1.5625 C 2.554688 -1.40625 2.640625 -1.191406 2.640625 -0.921875 C 2.640625 -0.679688 2.578125 -0.484375 2.453125 -0.328125 C 2.328125 -0.179688 2.175781 -0.0703125 2 0 C 1.832031 0.0703125 1.671875 0.109375 1.515625 0.109375 C 1.367188 0.109375 1.164062 0.0703125 0.90625 0 C 0.789062 -0.03125 0.71875 -0.046875 0.6875 -0.046875 C 0.613281 -0.046875 0.566406 -0.03125 0.546875 0 L 0.390625 0 L 0.390625 -1.171875 L 0.515625 -1.171875 C 0.546875 -0.859375 0.65625 -0.601562 0.84375 -0.40625 C 1.039062 -0.21875 1.269531 -0.125 1.53125 -0.125 C 1.6875 -0.125 1.820312 -0.171875 1.9375 -0.265625 C 2.050781 -0.367188 2.109375 -0.5 2.109375 -0.65625 C 2.109375 -0.820312 2.054688 -0.957031 1.953125 -1.0625 C 1.847656 -1.164062 1.734375 -1.25 1.609375 -1.3125 C 1.492188 -1.382812 1.414062 -1.429688 1.375 -1.453125 C 1.351562 -1.472656 1.285156 -1.515625 1.171875 -1.578125 C 0.984375 -1.679688 0.835938 -1.769531 0.734375 -1.84375 C 0.628906 -1.914062 0.539062 -2.015625 0.46875 -2.140625 C 0.394531 -2.265625 0.359375 -2.421875 0.359375 -2.609375 C 0.359375 -2.890625 0.457031 -3.117188 0.65625 -3.296875 C 0.851562 -3.472656 1.101562 -3.5625 1.40625 -3.5625 Z M 1.40625 -3.5625 "/></g></g></g><g fill="#000000" fill-opacity="1"><g transform="translate(109.789948, 32.229264)"><g/></g></g><g fill="#000000" fill-opacity="1"><g transform="translate(111.662825, 32.229264)"><g><path d="M 1.78125 -3.5625 C 2.53125 -3.5625 2.90625 -3.257812 2.90625 -2.65625 L 2.90625 -0.671875 C 2.90625 -0.535156 2.925781 -0.445312 2.96875 -0.40625 C 3.007812 -0.363281 3.0625 -0.34375 3.125 -0.34375 C 3.195312 -0.34375 3.265625 -0.363281 3.328125 -0.40625 C 3.398438 -0.445312 3.5 -0.53125 3.625 -0.65625 L 3.625 -0.46875 C 3.4375 -0.25 3.28125 -0.0976562 3.15625 -0.015625 C 3.03125 0.0664062 2.90625 0.109375 2.78125 0.109375 C 2.632812 0.109375 2.515625 0.0546875 2.421875 -0.046875 C 2.335938 -0.148438 2.296875 -0.300781 2.296875 -0.5 C 2.078125 -0.289062 1.875 -0.132812 1.6875 -0.03125 C 1.5 0.0625 1.296875 0.109375 1.078125 0.109375 C 0.859375 0.109375 0.671875 0.0234375 0.515625 -0.140625 C 0.367188 -0.304688 0.296875 -0.503906 0.296875 -0.734375 C 0.296875 -1.140625 0.507812 -1.453125 0.9375 -1.671875 C 1.34375 -1.878906 1.796875 -2.078125 2.296875 -2.265625 L 2.296875 -2.46875 C 2.296875 -2.664062 2.28125 -2.820312 2.25 -2.9375 C 2.226562 -3.0625 2.164062 -3.160156 2.0625 -3.234375 C 1.96875 -3.304688 1.820312 -3.34375 1.625 -3.34375 C 1.425781 -3.34375 1.28125 -3.296875 1.1875 -3.203125 C 1.09375 -3.109375 1.046875 -2.992188 1.046875 -2.859375 L 1.0625 -2.65625 C 1.0625 -2.570312 1.03125 -2.5 0.96875 -2.4375 C 0.914062 -2.382812 0.847656 -2.359375 0.765625 -2.359375 C 0.671875 -2.359375 0.59375 -2.382812 0.53125 -2.4375 C 0.46875 -2.5 0.4375 -2.578125 0.4375 -2.671875 C 0.4375 -2.921875 0.550781 -3.128906 0.78125 -3.296875 C 1.019531 -3.472656 1.351562 -3.5625 1.78125 -3.5625 Z M 0.9375 -0.9375 C 0.9375 -0.769531 0.988281 -0.625 1.09375 -0.5 C 1.195312 -0.382812 1.332031 -0.328125 1.5 -0.328125 C 1.75 -0.328125 2.015625 -0.453125 2.296875 -0.703125 L 2.296875 -2.0625 C 1.953125 -1.914062 1.679688 -1.785156 1.484375 -1.671875 C 1.296875 -1.566406 1.15625 -1.457031 1.0625 -1.34375 C 0.976562 -1.226562 0.9375 -1.09375 0.9375 -0.9375 Z M 0.9375 -0.9375 "/></g></g></g><g fill="#000000" fill-opacity="1"><g transform="translate(115.40859, 32.229264)"><g><path d="M 1.34375 -2.828125 C 1.601562 -3.097656 1.8125 -3.285156 1.96875 -3.390625 C 2.132812 -3.503906 2.316406 -3.5625 2.515625 -3.5625 C 2.742188 -3.5625 2.921875 -3.5 3.046875 -3.375 C 3.179688 -3.257812 3.28125 -3.113281 3.34375 -2.9375 C 3.40625 -2.769531 3.4375 -2.609375 3.4375 -2.453125 L 3.4375 -0.796875 C 3.4375 -0.535156 3.472656 -0.363281 3.546875 -0.28125 C 3.628906 -0.195312 3.769531 -0.148438 3.96875 -0.140625 L 3.96875 0 L 2.21875 0 L 2.21875 -0.140625 C 2.375 -0.140625 2.492188 -0.15625 2.578125 -0.1875 C 2.660156 -0.21875 2.722656 -0.28125 2.765625 -0.375 C 2.804688 -0.46875 2.828125 -0.609375 2.828125 -0.796875 L 2.828125 -2.484375 C 2.828125 -2.640625 2.769531 -2.78125 2.65625 -2.90625 C 2.550781 -3.039062 2.410156 -3.109375 2.234375 -3.109375 C 2.078125 -3.109375 1.925781 -3.066406 1.78125 -2.984375 C 1.644531 -2.898438 1.5 -2.773438 1.34375 -2.609375 L 1.34375 -0.796875 C 1.34375 -0.535156 1.382812 -0.359375 1.46875 -0.265625 C 1.550781 -0.179688 1.695312 -0.140625 1.90625 -0.140625 L 1.90625 0 L 0.1875 0 L 0.1875 -0.140625 C 0.34375 -0.148438 0.457031 -0.175781 0.53125 -0.21875 C 0.601562 -0.257812 0.648438 -0.320312 0.671875 -0.40625 C 0.703125 -0.488281 0.71875 -0.609375 0.71875 -0.765625 L 0.71875 -2.640625 C 0.71875 -2.753906 0.691406 -2.851562 0.640625 -2.9375 C 0.597656 -3.019531 0.519531 -3.0625 0.40625 -3.0625 C 0.363281 -3.0625 0.316406 -3.050781 0.265625 -3.03125 C 0.222656 -3.019531 0.195312 -3.007812 0.1875 -3 L 0.140625 -3.140625 L 1.21875 -3.5625 L 1.34375 -3.5625 Z M 1.34375 -2.828125 "/></g></g></g><g fill="#000000" fill-opacity="1"><g transform="translate(119.543917, 32.229264)"><g><path d="M 1.671875 -3.34375 C 1.523438 -3.34375 1.421875 -3.320312 1.359375 -3.28125 C 1.296875 -3.238281 1.265625 -3.164062 1.265625 -3.0625 C 1.265625 -2.96875 1.28125 -2.882812 1.3125 -2.8125 C 1.34375 -2.738281 1.363281 -2.695312 1.375 -2.6875 L 2.1875 -0.875 L 2.921875 -2.859375 C 2.960938 -2.984375 2.984375 -3.066406 2.984375 -3.109375 C 2.984375 -3.191406 2.957031 -3.25 2.90625 -3.28125 C 2.851562 -3.3125 2.765625 -3.332031 2.640625 -3.34375 L 2.640625 -3.46875 L 3.625 -3.46875 L 3.625 -3.34375 C 3.539062 -3.332031 3.460938 -3.289062 3.390625 -3.21875 C 3.328125 -3.144531 3.269531 -3.039062 3.21875 -2.90625 L 2.0625 0.234375 C 1.914062 0.597656 1.75 0.914062 1.5625 1.1875 C 1.375 1.457031 1.109375 1.59375 0.765625 1.59375 C 0.617188 1.59375 0.5 1.550781 0.40625 1.46875 C 0.3125 1.394531 0.265625 1.296875 0.265625 1.171875 C 0.265625 1.078125 0.300781 0.992188 0.375 0.921875 C 0.445312 0.859375 0.539062 0.828125 0.65625 0.828125 C 0.726562 0.828125 0.789062 0.835938 0.84375 0.859375 C 0.90625 0.890625 0.941406 0.90625 0.953125 0.90625 C 1.054688 0.945312 1.128906 0.96875 1.171875 0.96875 C 1.304688 0.96875 1.425781 0.878906 1.53125 0.703125 C 1.644531 0.535156 1.769531 0.273438 1.90625 -0.078125 L 0.828125 -2.484375 C 0.722656 -2.710938 0.640625 -2.875 0.578125 -2.96875 C 0.523438 -3.070312 0.460938 -3.15625 0.390625 -3.21875 C 0.316406 -3.289062 0.226562 -3.332031 0.125 -3.34375 L 0.125 -3.46875 L 1.671875 -3.46875 Z M 1.671875 -3.34375 "/></g></g></g><g fill="#000000" fill-opacity="1"><g transform="translate(123.289682, 32.229264)"><g/></g></g><g fill="#000000" fill-opacity="1"><g transform="translate(125.162559, 32.229264)"><g><path d="M 1.25 -4.578125 L 1.359375 -4.578125 L 1.359375 -3.46875 L 2.140625 -3.46875 L 2.140625 -3.234375 L 1.359375 -3.234375 L 1.359375 -0.828125 C 1.359375 -0.703125 1.394531 -0.585938 1.46875 -0.484375 C 1.550781 -0.378906 1.65625 -0.328125 1.78125 -0.328125 C 1.875 -0.328125 1.957031 -0.347656 2.03125 -0.390625 C 2.101562 -0.429688 2.175781 -0.503906 2.25 -0.609375 L 2.40625 -0.609375 C 2.269531 -0.367188 2.128906 -0.1875 1.984375 -0.0625 C 1.835938 0.0507812 1.660156 0.109375 1.453125 0.109375 C 1.234375 0.109375 1.0625 0.03125 0.9375 -0.125 C 0.8125 -0.289062 0.75 -0.515625 0.75 -0.796875 L 0.75 -3.234375 L 0.21875 -3.234375 L 0.21875 -3.390625 C 0.46875 -3.492188 0.679688 -3.644531 0.859375 -3.84375 C 1.035156 -4.050781 1.164062 -4.296875 1.25 -4.578125 Z M 1.25 -4.578125 "/></g></g></g><g fill="#000000" fill-opacity="1"><g transform="translate(127.65724, 32.229264)"><g><path d="M 1.015625 -5.390625 C 1.128906 -5.390625 1.222656 -5.351562 1.296875 -5.28125 C 1.367188 -5.207031 1.40625 -5.113281 1.40625 -5 C 1.40625 -4.894531 1.367188 -4.804688 1.296875 -4.734375 C 1.222656 -4.660156 1.128906 -4.625 1.015625 -4.625 C 0.910156 -4.625 0.820312 -4.660156 0.75 -4.734375 C 0.675781 -4.804688 0.640625 -4.894531 0.640625 -5 C 0.640625 -5.113281 0.675781 -5.207031 0.75 -5.28125 C 0.820312 -5.351562 0.910156 -5.390625 1.015625 -5.390625 Z M 1.34375 -0.78125 C 1.34375 -0.53125 1.382812 -0.359375 1.46875 -0.265625 C 1.550781 -0.179688 1.679688 -0.140625 1.859375 -0.140625 L 1.859375 0 L 0.171875 0 L 0.171875 -0.140625 C 0.378906 -0.140625 0.523438 -0.1875 0.609375 -0.28125 C 0.691406 -0.375 0.734375 -0.546875 0.734375 -0.796875 L 0.734375 -2.609375 C 0.734375 -2.742188 0.703125 -2.851562 0.640625 -2.9375 C 0.578125 -3.019531 0.484375 -3.0625 0.359375 -3.0625 C 0.304688 -3.0625 0.257812 -3.050781 0.21875 -3.03125 L 0.171875 -3.15625 L 1.21875 -3.5625 L 1.34375 -3.5625 Z M 1.34375 -0.78125 "/></g></g></g><g fill="#000000" fill-opacity="1"><g transform="translate(129.687448, 32.229264)"><g><path d="M 1.3125 -3.5625 L 1.3125 -2.84375 C 1.738281 -3.320312 2.128906 -3.5625 2.484375 -3.5625 C 2.710938 -3.5625 2.898438 -3.492188 3.046875 -3.359375 C 3.191406 -3.234375 3.289062 -3.046875 3.34375 -2.796875 C 3.726562 -3.304688 4.144531 -3.5625 4.59375 -3.5625 C 4.914062 -3.5625 5.144531 -3.441406 5.28125 -3.203125 C 5.425781 -2.972656 5.5 -2.707031 5.5 -2.40625 L 5.5 -0.796875 C 5.5 -0.609375 5.515625 -0.46875 5.546875 -0.375 C 5.585938 -0.28125 5.648438 -0.21875 5.734375 -0.1875 C 5.816406 -0.15625 5.925781 -0.140625 6.0625 -0.140625 L 6.0625 0 L 4.296875 0 L 4.296875 -0.140625 C 4.453125 -0.140625 4.570312 -0.148438 4.65625 -0.171875 C 4.738281 -0.203125 4.796875 -0.265625 4.828125 -0.359375 C 4.867188 -0.460938 4.890625 -0.613281 4.890625 -0.8125 L 4.890625 -2.46875 C 4.890625 -2.644531 4.835938 -2.796875 4.734375 -2.921875 C 4.628906 -3.046875 4.476562 -3.109375 4.28125 -3.109375 C 4.125 -3.109375 3.960938 -3.066406 3.796875 -2.984375 C 3.628906 -2.898438 3.492188 -2.785156 3.390625 -2.640625 L 3.40625 -2.203125 L 3.40625 -0.796875 C 3.40625 -0.609375 3.425781 -0.46875 3.46875 -0.375 C 3.507812 -0.28125 3.566406 -0.21875 3.640625 -0.1875 C 3.710938 -0.15625 3.820312 -0.140625 3.96875 -0.140625 L 3.96875 0 L 2.203125 0 L 2.203125 -0.140625 C 2.359375 -0.140625 2.472656 -0.148438 2.546875 -0.171875 C 2.628906 -0.203125 2.691406 -0.265625 2.734375 -0.359375 C 2.773438 -0.453125 2.796875 -0.597656 2.796875 -0.796875 L 2.796875 -2.40625 C 2.796875 -2.582031 2.742188 -2.742188 2.640625 -2.890625 C 2.546875 -3.035156 2.394531 -3.109375 2.1875 -3.109375 C 2.0625 -3.109375 1.921875 -3.066406 1.765625 -2.984375 C 1.609375 -2.910156 1.457031 -2.800781 1.3125 -2.65625 L 1.3125 -0.796875 C 1.3125 -0.535156 1.347656 -0.359375 1.421875 -0.265625 C 1.503906 -0.179688 1.632812 -0.140625 1.8125 -0.140625 L 1.859375 -0.140625 L 1.859375 0 L 0.109375 0 L 0.109375 -0.140625 C 0.265625 -0.140625 0.378906 -0.148438 0.453125 -0.171875 C 0.535156 -0.203125 0.597656 -0.265625 0.640625 -0.359375 C 0.679688 -0.460938 0.703125 -0.609375 0.703125 -0.796875 L 0.703125 -2.5625 C 0.703125 -2.707031 0.671875 -2.828125 0.609375 -2.921875 C 0.546875 -3.015625 0.453125 -3.0625 0.328125 -3.0625 C 0.242188 -3.0625 0.171875 -3.050781 0.109375 -3.03125 L 0.0625 -3.15625 L 1.1875 -3.5625 Z M 1.3125 -3.5625 "/></g></g></g><g fill="#000000" fill-opacity="1"><g transform="translate(135.852972, 32.229264)"><g><path d="M 1.765625 -3.5625 C 2.148438 -3.5625 2.460938 -3.429688 2.703125 -3.171875 C 2.941406 -2.910156 3.0625 -2.570312 3.0625 -2.15625 L 0.71875 -2.15625 L 0.71875 -2.0625 C 0.71875 -1.789062 0.769531 -1.535156 0.875 -1.296875 C 0.976562 -1.054688 1.125 -0.859375 1.3125 -0.703125 C 1.507812 -0.554688 1.722656 -0.484375 1.953125 -0.484375 C 2.429688 -0.484375 2.765625 -0.75 2.953125 -1.28125 L 3.0625 -1.21875 C 2.988281 -0.8125 2.828125 -0.488281 2.578125 -0.25 C 2.328125 -0.0078125 2.023438 0.109375 1.671875 0.109375 C 1.410156 0.109375 1.171875 0.0390625 0.953125 -0.09375 C 0.734375 -0.226562 0.550781 -0.429688 0.40625 -0.703125 C 0.269531 -0.972656 0.203125 -1.300781 0.203125 -1.6875 C 0.203125 -2.050781 0.265625 -2.375 0.390625 -2.65625 C 0.523438 -2.945312 0.707031 -3.171875 0.9375 -3.328125 C 1.175781 -3.484375 1.453125 -3.5625 1.765625 -3.5625 Z M 1.546875 -3.296875 C 1.335938 -3.296875 1.15625 -3.210938 1 -3.046875 C 0.851562 -2.878906 0.765625 -2.660156 0.734375 -2.390625 L 2.296875 -2.390625 C 2.285156 -2.660156 2.21875 -2.878906 2.09375 -3.046875 C 1.96875 -3.210938 1.785156 -3.296875 1.546875 -3.296875 Z M 1.546875 -3.296875 "/></g></g></g><g fill="#000000" fill-opacity="1"><g transform="translate(139.134264, 32.229264)"><g><path d="M 1.046875 -5.25 C 1.171875 -5.25 1.269531 -5.203125 1.34375 -5.109375 C 1.425781 -5.015625 1.46875 -4.882812 1.46875 -4.71875 C 1.46875 -4.601562 1.453125 -4.445312 1.421875 -4.25 L 1.09375 -1.359375 L 0.96875 -1.359375 L 0.65625 -4.265625 L 0.640625 -4.421875 L 0.625 -4.734375 C 0.625 -4.878906 0.664062 -5 0.75 -5.09375 C 0.832031 -5.195312 0.929688 -5.25 1.046875 -5.25 Z M 1.015625 -0.71875 C 1.128906 -0.71875 1.222656 -0.675781 1.296875 -0.59375 C 1.378906 -0.519531 1.421875 -0.425781 1.421875 -0.3125 C 1.421875 -0.195312 1.378906 -0.0976562 1.296875 -0.015625 C 1.222656 0.0664062 1.128906 0.109375 1.015625 0.109375 C 0.898438 0.109375 0.800781 0.0664062 0.71875 -0.015625 C 0.632812 -0.0976562 0.59375 -0.195312 0.59375 -0.3125 C 0.59375 -0.425781 0.632812 -0.519531 0.71875 -0.59375 C 0.800781 -0.675781 0.898438 -0.71875 1.015625 -0.71875 Z M 1.015625 -0.71875 "/></g></g></g></svg>