<svg version="1.0" preserveAspectRatio="xMidYMid meet" viewBox="18.56025 1.4804832379182156 121.87349999999999 37.176579085501864" zoomAndPan="magnify" xmlns:xlink="http://www.w3.org/1999/xlink" xmlns="http://www.w3.org/2000/svg" style="max-height: 500px" width="121.87349999999999" height="37.176579085501864"><defs><g/><clipPath id="1c89f36835"><path clip-rule="nonzero" d="M 1 0 L 162.511719 0 L 162.511719 43.511719 L 1 43.511719 Z M 1 0"/></clipPath><clipPath id="b13511517c"><path clip-rule="nonzero" d="M 38 4.75 L 53.574219 4.75 L 53.574219 20 L 38 20 Z M 38 4.75"/></clipPath><clipPath id="b6e9457ca5"><path clip-rule="nonzero" d="M 22.597656 5 L 52 5 L 52 35.722656 L 22.597656 35.722656 Z M 22.597656 5"/></clipPath></defs><g clip-path="url(#1c89f36835)"><path fill-rule="nonzero" fill-opacity="1" d="M 1 0 L 162.511719 0 L 162.511719 43.511719 L 1 43.511719 Z M 1 0" fill="#ffffff"/><path fill-rule="nonzero" fill-opacity="1" d="M 1 0 L 162.511719 0 L 162.511719 43.511719 L 1 43.511719 Z M 1 0" fill="#ffffff"/></g><path fill-rule="nonzero" fill-opacity="1" d="M 38.5625 10 C 38.5625 9.867188 38.609375 9.753906 38.699219 9.664062 C 38.792969 9.570312 38.902344 9.523438 39.03125 9.523438 C 39.671875 9.523438 40.308594 9.589844 40.9375 9.714844 C 41.566406 9.84375 42.175781 10.03125 42.769531 10.28125 C 43.363281 10.53125 43.925781 10.839844 44.460938 11.203125 C 44.992188 11.5625 45.488281 11.976562 45.941406 12.4375 C 46.394531 12.898438 46.800781 13.402344 47.15625 13.941406 C 47.511719 14.484375 47.816406 15.058594 48.0625 15.660156 C 48.308594 16.261719 48.492188 16.882812 48.617188 17.523438 C 48.742188 18.164062 48.808594 18.808594 48.808594 19.460938 C 48.808594 19.59375 48.761719 19.707031 48.671875 19.796875 C 48.578125 19.890625 48.46875 19.9375 48.339844 19.9375 C 48.210938 19.9375 48.101562 19.890625 48.011719 19.796875 C 47.917969 19.707031 47.875 19.59375 47.875 19.460938 C 47.871094 18.871094 47.816406 18.289062 47.703125 17.710938 C 47.585938 17.132812 47.417969 16.570312 47.199219 16.023438 C 46.976562 15.480469 46.703125 14.960938 46.378906 14.472656 C 46.058594 13.980469 45.691406 13.527344 45.28125 13.109375 C 44.871094 12.691406 44.421875 12.320312 43.941406 11.992188 C 43.457031 11.664062 42.949219 11.386719 42.414062 11.160156 C 41.875 10.933594 41.324219 10.761719 40.753906 10.648438 C 40.183594 10.53125 39.609375 10.472656 39.03125 10.472656 C 38.902344 10.472656 38.792969 10.425781 38.699219 10.335938 C 38.609375 10.242188 38.5625 10.128906 38.5625 10 Z M 38.5625 10" fill="#000000"/><g clip-path="url(#b13511517c)"><path fill-rule="nonzero" fill-opacity="1" d="M 53.519531 19.460938 C 53.519531 19.59375 53.472656 19.707031 53.382812 19.796875 C 53.292969 19.890625 53.183594 19.9375 53.050781 19.9375 C 52.921875 19.9375 52.8125 19.890625 52.722656 19.796875 C 52.632812 19.707031 52.585938 19.59375 52.585938 19.460938 C 52.585938 18.558594 52.496094 17.664062 52.324219 16.773438 C 52.148438 15.886719 51.890625 15.027344 51.550781 14.191406 C 51.210938 13.355469 50.792969 12.5625 50.296875 11.808594 C 49.804688 11.054688 49.242188 10.359375 48.613281 9.71875 C 47.984375 9.082031 47.300781 8.507812 46.558594 8.007812 C 45.820312 7.503906 45.039062 7.078125 44.214844 6.730469 C 43.394531 6.386719 42.546875 6.121094 41.675781 5.945312 C 40.800781 5.769531 39.921875 5.679688 39.03125 5.679688 C 38.902344 5.679688 38.792969 5.632812 38.699219 5.539062 C 38.609375 5.445312 38.5625 5.335938 38.5625 5.203125 C 38.5625 5.070312 38.609375 4.960938 38.699219 4.867188 C 38.792969 4.773438 38.902344 4.726562 39.03125 4.726562 C 39.980469 4.730469 40.921875 4.824219 41.855469 5.015625 C 42.789062 5.203125 43.695312 5.484375 44.574219 5.855469 C 45.453125 6.226562 46.285156 6.679688 47.078125 7.21875 C 47.867188 7.753906 48.597656 8.367188 49.273438 9.050781 C 49.945312 9.734375 50.546875 10.476562 51.074219 11.28125 C 51.601562 12.085938 52.046875 12.933594 52.414062 13.828125 C 52.777344 14.722656 53.054688 15.640625 53.238281 16.589844 C 53.425781 17.539062 53.519531 18.496094 53.519531 19.460938 Z M 53.519531 19.460938" fill="#000000"/></g><path fill-rule="nonzero" fill-opacity="1" d="M 38.5625 14.789062 C 38.5625 14.65625 38.609375 14.546875 38.699219 14.453125 C 38.792969 14.359375 38.902344 14.3125 39.03125 14.3125 C 39.363281 14.316406 39.691406 14.347656 40.015625 14.417969 C 40.339844 14.484375 40.65625 14.582031 40.960938 14.710938 C 41.269531 14.839844 41.558594 15 41.835938 15.1875 C 42.109375 15.375 42.363281 15.589844 42.597656 15.828125 C 42.832031 16.066406 43.042969 16.328125 43.226562 16.609375 C 43.410156 16.890625 43.566406 17.183594 43.691406 17.496094 C 43.820312 17.808594 43.914062 18.128906 43.980469 18.460938 C 44.042969 18.792969 44.074219 19.125 44.074219 19.460938 C 44.078125 19.59375 44.03125 19.707031 43.941406 19.800781 C 43.847656 19.894531 43.738281 19.9375 43.609375 19.9375 C 43.480469 19.929688 43.375 19.882812 43.285156 19.789062 C 43.195312 19.699219 43.148438 19.589844 43.140625 19.460938 C 43.140625 19.1875 43.113281 18.914062 43.0625 18.644531 C 43.007812 18.375 42.929688 18.113281 42.828125 17.855469 C 42.722656 17.601562 42.597656 17.359375 42.445312 17.132812 C 42.296875 16.902344 42.125 16.691406 41.933594 16.496094 C 41.742188 16.300781 41.53125 16.125 41.308594 15.972656 C 41.082031 15.820312 40.84375 15.691406 40.59375 15.585938 C 40.34375 15.480469 40.085938 15.398438 39.820312 15.34375 C 39.554688 15.292969 39.285156 15.265625 39.015625 15.265625 C 38.890625 15.257812 38.78125 15.210938 38.695312 15.121094 C 38.605469 15.027344 38.5625 14.917969 38.5625 14.789062 Z M 38.5625 14.789062" fill="#000000"/><g clip-path="url(#b6e9457ca5)"><path fill-rule="nonzero" fill-opacity="1" d="M 51.917969 29.609375 L 51.917969 30.527344 C 51.917969 31.277344 51.65625 31.914062 51.132812 32.445312 L 48.6875 34.910156 C 48.175781 35.429688 47.558594 35.6875 46.835938 35.691406 L 46.726562 35.691406 C 45.949219 35.660156 45.171875 35.589844 44.402344 35.480469 C 43.632812 35.375 42.867188 35.230469 42.109375 35.050781 C 41.351562 34.871094 40.605469 34.660156 39.867188 34.410156 C 39.128906 34.160156 38.402344 33.875 37.691406 33.554688 C 36.980469 33.238281 36.285156 32.886719 35.601562 32.503906 C 34.921875 32.117188 34.261719 31.703125 33.621094 31.257812 C 32.976562 30.8125 32.359375 30.335938 31.757812 29.828125 C 31.160156 29.324219 30.585938 28.792969 30.035156 28.234375 C 29.484375 27.675781 28.960938 27.089844 28.464844 26.480469 C 27.96875 25.875 27.5 25.242188 27.0625 24.589844 C 26.625 23.9375 26.214844 23.265625 25.835938 22.574219 C 25.460938 21.882812 25.113281 21.175781 24.800781 20.449219 C 24.488281 19.726562 24.210938 18.988281 23.964844 18.238281 C 23.71875 17.488281 23.507812 16.726562 23.332031 15.957031 C 23.15625 15.1875 23.015625 14.410156 22.910156 13.628906 C 22.804688 12.84375 22.734375 12.058594 22.703125 11.265625 C 22.660156 10.476562 22.914062 9.804688 23.46875 9.246094 L 25.894531 6.785156 C 26.414062 6.257812 27.039062 5.988281 27.777344 5.988281 L 28.667969 5.988281 C 29.21875 5.988281 29.722656 6.148438 30.175781 6.464844 C 30.628906 6.785156 30.953125 7.207031 31.152344 7.730469 L 33.300781 13.53125 C 33.476562 14.011719 33.511719 14.507812 33.414062 15.011719 C 33.3125 15.515625 33.089844 15.953125 32.742188 16.328125 L 31.851562 17.285156 C 31.574219 17.582031 31.417969 17.9375 31.386719 18.347656 C 31.355469 18.761719 31.457031 19.132812 31.6875 19.472656 C 33.582031 22.273438 35.902344 24.644531 38.648438 26.585938 C 38.980469 26.808594 39.34375 26.898438 39.738281 26.863281 C 40.136719 26.824219 40.476562 26.667969 40.765625 26.390625 L 41.71875 25.472656 C 42.089844 25.117188 42.519531 24.890625 43.015625 24.789062 C 43.511719 24.6875 44 24.726562 44.472656 24.90625 L 50.179688 27.085938 C 50.699219 27.285156 51.117188 27.613281 51.4375 28.074219 C 51.753906 28.535156 51.914062 29.046875 51.917969 29.609375 Z M 51.917969 29.609375" fill="#000000"/></g><g fill-opacity="1" fill="#000000"><g transform="translate(58.827006, 22.445378)"><g><path d="M 5.703125 0.203125 C 4.410156 0.203125 3.394531 -0.0546875 2.65625 -0.578125 C 1.914062 -1.097656 1.421875 -1.828125 1.171875 -2.765625 L 3.234375 -3.6875 L 3.4375 -3.640625 C 3.789062 -2.597656 4.539062 -2.078125 5.6875 -2.078125 C 6.570312 -2.078125 7.242188 -2.445312 7.703125 -3.1875 C 8.171875 -3.925781 8.40625 -5.03125 8.40625 -6.5 L 8.21875 -6.5625 C 7.90625 -5.976562 7.5 -5.53125 7 -5.21875 C 6.5 -4.914062 5.851562 -4.765625 5.0625 -4.765625 C 4.238281 -4.765625 3.519531 -4.941406 2.90625 -5.296875 C 2.289062 -5.660156 1.8125 -6.175781 1.46875 -6.84375 C 1.125 -7.519531 0.953125 -8.304688 0.953125 -9.203125 C 0.953125 -10.148438 1.148438 -10.96875 1.546875 -11.65625 C 1.941406 -12.351562 2.503906 -12.890625 3.234375 -13.265625 C 3.972656 -13.648438 4.832031 -13.84375 5.8125 -13.84375 C 7.5 -13.84375 8.816406 -13.304688 9.765625 -12.234375 C 10.710938 -11.171875 11.1875 -9.453125 11.1875 -7.078125 C 11.1875 -5.453125 10.96875 -4.097656 10.53125 -3.015625 C 10.09375 -1.929688 9.460938 -1.125 8.640625 -0.59375 C 7.828125 -0.0625 6.847656 0.203125 5.703125 0.203125 Z M 5.890625 -6.984375 C 6.585938 -6.984375 7.140625 -7.1875 7.546875 -7.59375 C 7.953125 -8.007812 8.15625 -8.5625 8.15625 -9.25 C 8.15625 -9.957031 7.953125 -10.515625 7.546875 -10.921875 C 7.148438 -11.335938 6.597656 -11.546875 5.890625 -11.546875 C 5.191406 -11.546875 4.644531 -11.34375 4.25 -10.9375 C 3.863281 -10.539062 3.671875 -9.976562 3.671875 -9.25 C 3.671875 -8.53125 3.863281 -7.972656 4.25 -7.578125 C 4.644531 -7.179688 5.191406 -6.984375 5.890625 -6.984375 Z M 5.890625 -6.984375"/></g></g></g><g fill-opacity="1" fill="#000000"><g transform="translate(71.15598, 22.445378)"><g><path d="M 5.84375 0.203125 C 4.769531 0.203125 3.859375 0.0351562 3.109375 -0.296875 C 2.359375 -0.640625 1.789062 -1.117188 1.40625 -1.734375 C 1.03125 -2.359375 0.84375 -3.097656 0.84375 -3.953125 C 0.84375 -4.742188 1.035156 -5.425781 1.421875 -6 C 1.816406 -6.582031 2.390625 -7.039062 3.140625 -7.375 L 3.140625 -7.5625 C 2.609375 -7.894531 2.203125 -8.285156 1.921875 -8.734375 C 1.640625 -9.191406 1.5 -9.726562 1.5 -10.34375 C 1.5 -11.03125 1.664062 -11.632812 2 -12.15625 C 2.34375 -12.6875 2.84375 -13.097656 3.5 -13.390625 C 4.15625 -13.691406 4.9375 -13.84375 5.84375 -13.84375 C 6.757812 -13.84375 7.546875 -13.691406 8.203125 -13.390625 C 8.859375 -13.097656 9.351562 -12.6875 9.6875 -12.15625 C 10.03125 -11.632812 10.203125 -11.03125 10.203125 -10.34375 C 10.203125 -9.726562 10.054688 -9.195312 9.765625 -8.75 C 9.484375 -8.300781 9.070312 -7.90625 8.53125 -7.5625 L 8.53125 -7.375 C 9.332031 -7.050781 9.921875 -6.597656 10.296875 -6.015625 C 10.671875 -5.429688 10.859375 -4.742188 10.859375 -3.953125 C 10.859375 -3.097656 10.664062 -2.359375 10.28125 -1.734375 C 9.90625 -1.117188 9.34375 -0.640625 8.59375 -0.296875 C 7.84375 0.0351562 6.925781 0.203125 5.84375 0.203125 Z M 5.84375 -8.328125 C 6.382812 -8.328125 6.816406 -8.476562 7.140625 -8.78125 C 7.460938 -9.082031 7.625 -9.492188 7.625 -10.015625 C 7.625 -10.554688 7.460938 -10.976562 7.140625 -11.28125 C 6.816406 -11.582031 6.382812 -11.734375 5.84375 -11.734375 C 5.289062 -11.734375 4.851562 -11.582031 4.53125 -11.28125 C 4.21875 -10.976562 4.0625 -10.554688 4.0625 -10.015625 C 4.0625 -9.484375 4.21875 -9.066406 4.53125 -8.765625 C 4.851562 -8.472656 5.289062 -8.328125 5.84375 -8.328125 Z M 5.84375 -2.09375 C 6.570312 -2.09375 7.132812 -2.273438 7.53125 -2.640625 C 7.9375 -3.003906 8.140625 -3.507812 8.140625 -4.15625 C 8.140625 -4.800781 7.9375 -5.304688 7.53125 -5.671875 C 7.132812 -6.035156 6.570312 -6.21875 5.84375 -6.21875 C 5.113281 -6.21875 4.550781 -6.035156 4.15625 -5.671875 C 3.757812 -5.304688 3.5625 -4.800781 3.5625 -4.15625 C 3.5625 -3.507812 3.757812 -3.003906 4.15625 -2.640625 C 4.550781 -2.273438 5.113281 -2.09375 5.84375 -2.09375 Z M 5.84375 -2.09375"/></g></g></g><g fill-opacity="1" fill="#000000"><g transform="translate(82.850786, 22.445378)"><g><path d="M 0.65625 -1.078125 C 0.65625 -1.835938 0.738281 -2.472656 0.90625 -2.984375 C 1.070312 -3.503906 1.34375 -3.972656 1.71875 -4.390625 C 2.09375 -4.816406 2.617188 -5.28125 3.296875 -5.78125 L 5.125 -7.09375 C 5.625 -7.445312 6.007812 -7.753906 6.28125 -8.015625 C 6.5625 -8.273438 6.769531 -8.546875 6.90625 -8.828125 C 7.050781 -9.117188 7.125 -9.445312 7.125 -9.8125 C 7.125 -10.363281 6.953125 -10.789062 6.609375 -11.09375 C 6.273438 -11.394531 5.773438 -11.546875 5.109375 -11.546875 C 4.460938 -11.546875 3.882812 -11.390625 3.375 -11.078125 C 2.875 -10.773438 2.457031 -10.359375 2.125 -9.828125 L 1.953125 -9.78125 L 0.46875 -11.4375 C 0.945312 -12.15625 1.578125 -12.734375 2.359375 -13.171875 C 3.140625 -13.617188 4.085938 -13.84375 5.203125 -13.84375 C 6.222656 -13.84375 7.078125 -13.671875 7.765625 -13.328125 C 8.453125 -12.992188 8.960938 -12.535156 9.296875 -11.953125 C 9.628906 -11.367188 9.796875 -10.703125 9.796875 -9.953125 C 9.796875 -9.304688 9.660156 -8.710938 9.390625 -8.171875 C 9.117188 -7.640625 8.742188 -7.144531 8.265625 -6.6875 C 7.785156 -6.238281 7.171875 -5.753906 6.421875 -5.234375 L 4.8125 -4.109375 C 4.332031 -3.753906 3.992188 -3.441406 3.796875 -3.171875 C 3.609375 -2.898438 3.515625 -2.597656 3.515625 -2.265625 L 9.671875 -2.265625 L 9.671875 0 L 0.65625 0 Z M 0.65625 -1.078125"/></g></g></g><g fill-opacity="1" fill="#000000"><g transform="translate(93.491754, 22.445378)"><g><path d="M 4.53125 0 L 1.78125 0 L 6.484375 -11.171875 L 6.421875 -11.375 L 0.375 -11.375 L 0.375 -13.640625 L 9.21875 -13.640625 L 9.21875 -11.25 Z M 4.53125 0"/></g></g></g><g fill-opacity="1" fill="#000000"><g transform="translate(103.162817, 22.445378)"><g><path d="M 5.6875 0.203125 C 4.320312 0.203125 3.238281 -0.0820312 2.4375 -0.65625 C 1.632812 -1.226562 1.113281 -2.03125 0.875 -3.0625 L 2.921875 -3.96875 L 3.140625 -3.921875 C 3.335938 -3.316406 3.632812 -2.863281 4.03125 -2.5625 C 4.425781 -2.257812 4.96875 -2.109375 5.65625 -2.109375 C 6.363281 -2.109375 6.910156 -2.3125 7.296875 -2.71875 C 7.679688 -3.125 7.875 -3.726562 7.875 -4.53125 C 7.875 -5.320312 7.679688 -5.921875 7.296875 -6.328125 C 6.921875 -6.742188 6.398438 -6.953125 5.734375 -6.953125 C 5.234375 -6.953125 4.8125 -6.84375 4.46875 -6.625 C 4.125 -6.40625 3.835938 -6.082031 3.609375 -5.65625 L 1.375 -5.8125 L 1.65625 -13.640625 L 9.78125 -13.640625 L 9.78125 -11.375 L 3.921875 -11.375 L 3.796875 -7.890625 L 4 -7.859375 C 4.3125 -8.273438 4.6875 -8.585938 5.125 -8.796875 C 5.570312 -9.015625 6.109375 -9.125 6.734375 -9.125 C 7.503906 -9.125 8.179688 -8.953125 8.765625 -8.609375 C 9.347656 -8.265625 9.796875 -7.75 10.109375 -7.0625 C 10.429688 -6.382812 10.59375 -5.554688 10.59375 -4.578125 C 10.59375 -3.566406 10.398438 -2.707031 10.015625 -2 C 9.628906 -1.289062 9.066406 -0.742188 8.328125 -0.359375 C 7.597656 0.015625 6.71875 0.203125 5.6875 0.203125 Z M 5.6875 0.203125"/></g></g></g><g fill-opacity="1" fill="#000000"><g transform="translate(114.652451, 22.445378)"><g><path d="M 5.703125 0.203125 C 4.410156 0.203125 3.394531 -0.0546875 2.65625 -0.578125 C 1.914062 -1.097656 1.421875 -1.828125 1.171875 -2.765625 L 3.234375 -3.6875 L 3.4375 -3.640625 C 3.789062 -2.597656 4.539062 -2.078125 5.6875 -2.078125 C 6.570312 -2.078125 7.242188 -2.445312 7.703125 -3.1875 C 8.171875 -3.925781 8.40625 -5.03125 8.40625 -6.5 L 8.21875 -6.5625 C 7.90625 -5.976562 7.5 -5.53125 7 -5.21875 C 6.5 -4.914062 5.851562 -4.765625 5.0625 -4.765625 C 4.238281 -4.765625 3.519531 -4.941406 2.90625 -5.296875 C 2.289062 -5.660156 1.8125 -6.175781 1.46875 -6.84375 C 1.125 -7.519531 0.953125 -8.304688 0.953125 -9.203125 C 0.953125 -10.148438 1.148438 -10.96875 1.546875 -11.65625 C 1.941406 -12.351562 2.503906 -12.890625 3.234375 -13.265625 C 3.972656 -13.648438 4.832031 -13.84375 5.8125 -13.84375 C 7.5 -13.84375 8.816406 -13.304688 9.765625 -12.234375 C 10.710938 -11.171875 11.1875 -9.453125 11.1875 -7.078125 C 11.1875 -5.453125 10.96875 -4.097656 10.53125 -3.015625 C 10.09375 -1.929688 9.460938 -1.125 8.640625 -0.59375 C 7.828125 -0.0625 6.847656 0.203125 5.703125 0.203125 Z M 5.890625 -6.984375 C 6.585938 -6.984375 7.140625 -7.1875 7.546875 -7.59375 C 7.953125 -8.007812 8.15625 -8.5625 8.15625 -9.25 C 8.15625 -9.957031 7.953125 -10.515625 7.546875 -10.921875 C 7.148438 -11.335938 6.597656 -11.546875 5.890625 -11.546875 C 5.191406 -11.546875 4.644531 -11.34375 4.25 -10.9375 C 3.863281 -10.539062 3.671875 -9.976562 3.671875 -9.25 C 3.671875 -8.53125 3.863281 -7.972656 4.25 -7.578125 C 4.644531 -7.179688 5.191406 -6.984375 5.890625 -6.984375 Z M 5.890625 -6.984375"/></g></g></g><g fill-opacity="1" fill="#000000"><g transform="translate(126.981426, 22.445378)"><g><path d="M 5.84375 0.203125 C 4.769531 0.203125 3.859375 0.0351562 3.109375 -0.296875 C 2.359375 -0.640625 1.789062 -1.117188 1.40625 -1.734375 C 1.03125 -2.359375 0.84375 -3.097656 0.84375 -3.953125 C 0.84375 -4.742188 1.035156 -5.425781 1.421875 -6 C 1.816406 -6.582031 2.390625 -7.039062 3.140625 -7.375 L 3.140625 -7.5625 C 2.609375 -7.894531 2.203125 -8.285156 1.921875 -8.734375 C 1.640625 -9.191406 1.5 -9.726562 1.5 -10.34375 C 1.5 -11.03125 1.664062 -11.632812 2 -12.15625 C 2.34375 -12.6875 2.84375 -13.097656 3.5 -13.390625 C 4.15625 -13.691406 4.9375 -13.84375 5.84375 -13.84375 C 6.757812 -13.84375 7.546875 -13.691406 8.203125 -13.390625 C 8.859375 -13.097656 9.351562 -12.6875 9.6875 -12.15625 C 10.03125 -11.632812 10.203125 -11.03125 10.203125 -10.34375 C 10.203125 -9.726562 10.054688 -9.195312 9.765625 -8.75 C 9.484375 -8.300781 9.070312 -7.90625 8.53125 -7.5625 L 8.53125 -7.375 C 9.332031 -7.050781 9.921875 -6.597656 10.296875 -6.015625 C 10.671875 -5.429688 10.859375 -4.742188 10.859375 -3.953125 C 10.859375 -3.097656 10.664062 -2.359375 10.28125 -1.734375 C 9.90625 -1.117188 9.34375 -0.640625 8.59375 -0.296875 C 7.84375 0.0351562 6.925781 0.203125 5.84375 0.203125 Z M 5.84375 -8.328125 C 6.382812 -8.328125 6.816406 -8.476562 7.140625 -8.78125 C 7.460938 -9.082031 7.625 -9.492188 7.625 -10.015625 C 7.625 -10.554688 7.460938 -10.976562 7.140625 -11.28125 C 6.816406 -11.582031 6.382812 -11.734375 5.84375 -11.734375 C 5.289062 -11.734375 4.851562 -11.582031 4.53125 -11.28125 C 4.21875 -10.976562 4.0625 -10.554688 4.0625 -10.015625 C 4.0625 -9.484375 4.21875 -9.066406 4.53125 -8.765625 C 4.851562 -8.472656 5.289062 -8.328125 5.84375 -8.328125 Z M 5.84375 -2.09375 C 6.570312 -2.09375 7.132812 -2.273438 7.53125 -2.640625 C 7.9375 -3.003906 8.140625 -3.507812 8.140625 -4.15625 C 8.140625 -4.800781 7.9375 -5.304688 7.53125 -5.671875 C 7.132812 -6.035156 6.570312 -6.21875 5.84375 -6.21875 C 5.113281 -6.21875 4.550781 -6.035156 4.15625 -5.671875 C 3.757812 -5.304688 3.5625 -4.800781 3.5625 -4.15625 C 3.5625 -3.507812 3.757812 -3.003906 4.15625 -2.640625 C 4.550781 -2.273438 5.113281 -2.09375 5.84375 -2.09375 Z M 5.84375 -2.09375"/></g></g></g><g fill-opacity="1" fill="#000000"><g transform="translate(61.622116, 32.480135)"><g><path d="M 2.671875 -4.484375 C 2.878906 -4.484375 3.0625 -4.460938 3.21875 -4.421875 C 3.375 -4.378906 3.523438 -4.328125 3.671875 -4.265625 C 3.785156 -4.222656 3.859375 -4.203125 3.890625 -4.203125 C 3.941406 -4.203125 3.988281 -4.226562 4.03125 -4.28125 C 4.082031 -4.332031 4.117188 -4.398438 4.140625 -4.484375 L 4.25 -4.484375 L 4.359375 -3 L 4.25 -3 C 4.207031 -3.257812 4.109375 -3.484375 3.953125 -3.671875 C 3.804688 -3.859375 3.625 -4 3.40625 -4.09375 C 3.1875 -4.195312 2.957031 -4.25 2.71875 -4.25 C 2.21875 -4.25 1.816406 -4.066406 1.515625 -3.703125 C 1.210938 -3.347656 1.0625 -2.8125 1.0625 -2.09375 C 1.0625 -1.664062 1.144531 -1.304688 1.3125 -1.015625 C 1.476562 -0.734375 1.691406 -0.519531 1.953125 -0.375 C 2.222656 -0.238281 2.507812 -0.171875 2.8125 -0.171875 C 3.125 -0.171875 3.421875 -0.25 3.703125 -0.40625 C 3.984375 -0.570312 4.203125 -0.785156 4.359375 -1.046875 L 4.453125 -0.984375 C 4.035156 -0.265625 3.414062 0.09375 2.59375 0.09375 C 2.164062 0.09375 1.773438 -0.00390625 1.421875 -0.203125 C 1.066406 -0.398438 0.785156 -0.664062 0.578125 -1 C 0.367188 -1.34375 0.265625 -1.722656 0.265625 -2.140625 C 0.265625 -2.566406 0.367188 -2.957031 0.578125 -3.3125 C 0.796875 -3.675781 1.085938 -3.960938 1.453125 -4.171875 C 1.816406 -4.378906 2.222656 -4.484375 2.671875 -4.484375 Z M 2.671875 -4.484375"/></g></g></g><g fill-opacity="1" fill="#000000"><g transform="translate(66.217704, 32.480135)"><g><path d="M 1.53125 -3.03125 C 2.164062 -3.03125 2.484375 -2.773438 2.484375 -2.265625 L 2.484375 -0.578125 C 2.484375 -0.460938 2.5 -0.382812 2.53125 -0.34375 C 2.570312 -0.3125 2.617188 -0.296875 2.671875 -0.296875 C 2.734375 -0.296875 2.789062 -0.3125 2.84375 -0.34375 C 2.90625 -0.382812 2.988281 -0.457031 3.09375 -0.5625 L 3.09375 -0.390625 C 2.925781 -0.210938 2.789062 -0.0859375 2.6875 -0.015625 C 2.582031 0.0546875 2.476562 0.09375 2.375 0.09375 C 2.25 0.09375 2.148438 0.0507812 2.078125 -0.03125 C 2.003906 -0.125 1.96875 -0.253906 1.96875 -0.421875 C 1.78125 -0.242188 1.601562 -0.113281 1.4375 -0.03125 C 1.28125 0.0507812 1.109375 0.09375 0.921875 0.09375 C 0.734375 0.09375 0.570312 0.0234375 0.4375 -0.109375 C 0.3125 -0.253906 0.25 -0.425781 0.25 -0.625 C 0.25 -0.96875 0.429688 -1.234375 0.796875 -1.421875 C 1.140625 -1.609375 1.53125 -1.78125 1.96875 -1.9375 L 1.96875 -2.109375 C 1.96875 -2.273438 1.953125 -2.410156 1.921875 -2.515625 C 1.898438 -2.617188 1.847656 -2.703125 1.765625 -2.765625 C 1.679688 -2.828125 1.554688 -2.859375 1.390625 -2.859375 C 1.222656 -2.859375 1.097656 -2.816406 1.015625 -2.734375 C 0.929688 -2.648438 0.890625 -2.550781 0.890625 -2.4375 L 0.90625 -2.265625 C 0.90625 -2.191406 0.878906 -2.128906 0.828125 -2.078125 C 0.785156 -2.035156 0.726562 -2.015625 0.65625 -2.015625 C 0.570312 -2.015625 0.503906 -2.035156 0.453125 -2.078125 C 0.398438 -2.128906 0.375 -2.195312 0.375 -2.28125 C 0.375 -2.5 0.472656 -2.675781 0.671875 -2.8125 C 0.878906 -2.957031 1.164062 -3.03125 1.53125 -3.03125 Z M 0.796875 -0.796875 C 0.796875 -0.648438 0.84375 -0.523438 0.9375 -0.421875 C 1.03125 -0.328125 1.144531 -0.28125 1.28125 -0.28125 C 1.5 -0.28125 1.726562 -0.382812 1.96875 -0.59375 L 1.96875 -1.75 C 1.664062 -1.632812 1.429688 -1.53125 1.265625 -1.4375 C 1.109375 -1.34375 0.988281 -1.242188 0.90625 -1.140625 C 0.832031 -1.046875 0.796875 -0.929688 0.796875 -0.796875 Z M 0.796875 -0.796875"/></g></g></g><g fill-opacity="1" fill="#000000"><g transform="translate(69.413522, 32.480135)"><g><path d="M 1.15625 -4.578125 L 1.15625 -0.671875 C 1.15625 -0.453125 1.1875 -0.300781 1.25 -0.21875 C 1.3125 -0.144531 1.421875 -0.109375 1.578125 -0.109375 L 1.578125 0 L 0.140625 0 L 0.140625 -0.109375 C 0.265625 -0.109375 0.359375 -0.117188 0.421875 -0.140625 C 0.492188 -0.171875 0.546875 -0.226562 0.578125 -0.3125 C 0.609375 -0.394531 0.625 -0.515625 0.625 -0.671875 L 0.625 -3.6875 C 0.625 -3.976562 0.523438 -4.125 0.328125 -4.125 C 0.273438 -4.125 0.226562 -4.113281 0.1875 -4.09375 L 0.140625 -4.203125 L 1.046875 -4.578125 Z M 1.15625 -4.578125"/></g></g></g><g fill-opacity="1" fill="#000000"><g transform="translate(71.145658, 32.480135)"><g><path d="M 1.15625 -4.578125 L 1.15625 -0.671875 C 1.15625 -0.453125 1.1875 -0.300781 1.25 -0.21875 C 1.3125 -0.144531 1.421875 -0.109375 1.578125 -0.109375 L 1.578125 0 L 0.140625 0 L 0.140625 -0.109375 C 0.265625 -0.109375 0.359375 -0.117188 0.421875 -0.140625 C 0.492188 -0.171875 0.546875 -0.226562 0.578125 -0.3125 C 0.609375 -0.394531 0.625 -0.515625 0.625 -0.671875 L 0.625 -3.6875 C 0.625 -3.976562 0.523438 -4.125 0.328125 -4.125 C 0.273438 -4.125 0.226562 -4.113281 0.1875 -4.09375 L 0.140625 -4.203125 L 1.046875 -4.578125 Z M 1.15625 -4.578125"/></g></g></g><g fill-opacity="1" fill="#000000"><g transform="translate(72.877794, 32.480135)"><g/></g></g><g fill-opacity="1" fill="#000000"><g transform="translate(74.475699, 32.480135)"><g><path d="M 1.828125 -3.03125 C 2.078125 -3.03125 2.3125 -2.960938 2.53125 -2.828125 C 2.75 -2.703125 2.921875 -2.523438 3.046875 -2.296875 C 3.179688 -2.078125 3.25 -1.835938 3.25 -1.578125 C 3.25 -1.273438 3.175781 -0.992188 3.03125 -0.734375 C 2.894531 -0.484375 2.707031 -0.28125 2.46875 -0.125 C 2.226562 0.0195312 1.976562 0.09375 1.71875 0.09375 C 1.457031 0.09375 1.21875 0.0234375 1 -0.109375 C 0.78125 -0.242188 0.601562 -0.425781 0.46875 -0.65625 C 0.34375 -0.882812 0.28125 -1.132812 0.28125 -1.40625 C 0.28125 -1.6875 0.347656 -1.953125 0.484375 -2.203125 C 0.628906 -2.460938 0.820312 -2.664062 1.0625 -2.8125 C 1.300781 -2.957031 1.554688 -3.03125 1.828125 -3.03125 Z M 0.859375 -1.65625 C 0.859375 -1.40625 0.894531 -1.160156 0.96875 -0.921875 C 1.050781 -0.691406 1.164062 -0.503906 1.3125 -0.359375 C 1.46875 -0.210938 1.648438 -0.140625 1.859375 -0.140625 C 2.097656 -0.140625 2.289062 -0.242188 2.4375 -0.453125 C 2.59375 -0.671875 2.671875 -0.957031 2.671875 -1.3125 C 2.671875 -1.59375 2.628906 -1.847656 2.546875 -2.078125 C 2.460938 -2.304688 2.34375 -2.484375 2.1875 -2.609375 C 2.03125 -2.742188 1.851562 -2.8125 1.65625 -2.8125 C 1.414062 -2.8125 1.222656 -2.707031 1.078125 -2.5 C 0.929688 -2.289062 0.859375 -2.007812 0.859375 -1.65625 Z M 0.859375 -1.65625"/></g></g></g><g fill-opacity="1" fill="#000000"><g transform="translate(78.003884, 32.480135)"><g><path d="M 1.1875 -2.4375 C 1.300781 -2.632812 1.421875 -2.78125 1.546875 -2.875 C 1.679688 -2.976562 1.832031 -3.03125 2 -3.03125 C 2.113281 -3.03125 2.207031 -2.992188 2.28125 -2.921875 C 2.351562 -2.859375 2.390625 -2.773438 2.390625 -2.671875 C 2.390625 -2.585938 2.359375 -2.519531 2.296875 -2.46875 C 2.242188 -2.414062 2.179688 -2.390625 2.109375 -2.390625 C 2.046875 -2.390625 1.992188 -2.398438 1.953125 -2.421875 C 1.910156 -2.441406 1.875 -2.472656 1.84375 -2.515625 C 1.832031 -2.515625 1.816406 -2.523438 1.796875 -2.546875 C 1.773438 -2.566406 1.75 -2.582031 1.71875 -2.59375 C 1.695312 -2.601562 1.675781 -2.609375 1.65625 -2.609375 C 1.5625 -2.609375 1.476562 -2.566406 1.40625 -2.484375 C 1.332031 -2.410156 1.257812 -2.304688 1.1875 -2.171875 L 1.1875 -0.671875 C 1.1875 -0.503906 1.203125 -0.378906 1.234375 -0.296875 C 1.273438 -0.222656 1.332031 -0.171875 1.40625 -0.140625 C 1.476562 -0.117188 1.59375 -0.109375 1.75 -0.109375 L 1.75 0 L 0.171875 0 L 0.171875 -0.109375 L 0.203125 -0.109375 C 0.359375 -0.109375 0.472656 -0.144531 0.546875 -0.21875 C 0.617188 -0.300781 0.65625 -0.445312 0.65625 -0.65625 L 0.65625 -2.109375 C 0.65625 -2.304688 0.632812 -2.4375 0.59375 -2.5 C 0.550781 -2.5625 0.476562 -2.59375 0.375 -2.59375 C 0.3125 -2.59375 0.253906 -2.582031 0.203125 -2.5625 L 0.171875 -2.671875 L 1.0625 -3.03125 L 1.1875 -3.03125 Z M 1.1875 -2.4375"/></g></g></g><g fill-opacity="1" fill="#000000"><g transform="translate(80.464659, 32.480135)"><g/></g></g><g fill-opacity="1" fill="#000000"><g transform="translate(82.062564, 32.480135)"><g><path d="M 1.125 -3.03125 L 1.125 -2.421875 C 1.488281 -2.828125 1.816406 -3.03125 2.109375 -3.03125 C 2.304688 -3.03125 2.46875 -2.972656 2.59375 -2.859375 C 2.71875 -2.753906 2.804688 -2.597656 2.859375 -2.390625 C 3.179688 -2.816406 3.535156 -3.03125 3.921875 -3.03125 C 4.191406 -3.03125 4.390625 -2.929688 4.515625 -2.734375 C 4.640625 -2.535156 4.703125 -2.304688 4.703125 -2.046875 L 4.703125 -0.671875 C 4.703125 -0.515625 4.71875 -0.394531 4.75 -0.3125 C 4.78125 -0.238281 4.828125 -0.1875 4.890625 -0.15625 C 4.960938 -0.125 5.0625 -0.109375 5.1875 -0.109375 L 5.1875 0 L 3.671875 0 L 3.671875 -0.109375 C 3.804688 -0.109375 3.90625 -0.117188 3.96875 -0.140625 C 4.039062 -0.171875 4.09375 -0.226562 4.125 -0.3125 C 4.15625 -0.394531 4.171875 -0.519531 4.171875 -0.6875 L 4.171875 -2.109375 C 4.171875 -2.253906 4.125 -2.378906 4.03125 -2.484375 C 3.945312 -2.597656 3.820312 -2.65625 3.65625 -2.65625 C 3.519531 -2.65625 3.378906 -2.617188 3.234375 -2.546875 C 3.097656 -2.472656 2.984375 -2.375 2.890625 -2.25 L 2.90625 -1.875 L 2.90625 -0.671875 C 2.90625 -0.515625 2.921875 -0.394531 2.953125 -0.3125 C 2.992188 -0.238281 3.046875 -0.1875 3.109375 -0.15625 C 3.171875 -0.125 3.265625 -0.109375 3.390625 -0.109375 L 3.390625 0 L 1.875 0 L 1.875 -0.109375 C 2.007812 -0.109375 2.109375 -0.117188 2.171875 -0.140625 C 2.242188 -0.171875 2.296875 -0.222656 2.328125 -0.296875 C 2.367188 -0.378906 2.390625 -0.503906 2.390625 -0.671875 L 2.390625 -2.0625 C 2.390625 -2.207031 2.34375 -2.34375 2.25 -2.46875 C 2.164062 -2.59375 2.039062 -2.65625 1.875 -2.65625 C 1.757812 -2.65625 1.632812 -2.617188 1.5 -2.546875 C 1.375 -2.484375 1.25 -2.390625 1.125 -2.265625 L 1.125 -0.671875 C 1.125 -0.453125 1.15625 -0.300781 1.21875 -0.21875 C 1.289062 -0.144531 1.398438 -0.109375 1.546875 -0.109375 L 1.59375 -0.109375 L 1.59375 0 L 0.09375 0 L 0.09375 -0.109375 C 0.226562 -0.109375 0.328125 -0.117188 0.390625 -0.140625 C 0.460938 -0.171875 0.515625 -0.226562 0.546875 -0.3125 C 0.578125 -0.394531 0.59375 -0.515625 0.59375 -0.671875 L 0.59375 -2.1875 C 0.59375 -2.3125 0.566406 -2.414062 0.515625 -2.5 C 0.460938 -2.582031 0.382812 -2.625 0.28125 -2.625 C 0.207031 -2.625 0.144531 -2.613281 0.09375 -2.59375 L 0.046875 -2.703125 L 1.015625 -3.03125 Z M 1.125 -3.03125"/></g></g></g><g fill-opacity="1" fill="#000000"><g transform="translate(87.322878, 32.480135)"><g><path d="M 1.5 -3.03125 C 1.832031 -3.03125 2.101562 -2.921875 2.3125 -2.703125 C 2.519531 -2.484375 2.625 -2.195312 2.625 -1.84375 L 0.609375 -1.84375 L 0.609375 -1.75 C 0.609375 -1.53125 0.648438 -1.316406 0.734375 -1.109375 C 0.828125 -0.898438 0.957031 -0.734375 1.125 -0.609375 C 1.289062 -0.484375 1.472656 -0.421875 1.671875 -0.421875 C 2.078125 -0.421875 2.363281 -0.644531 2.53125 -1.09375 L 2.625 -1.046875 C 2.550781 -0.691406 2.40625 -0.410156 2.1875 -0.203125 C 1.976562 -0.00390625 1.726562 0.09375 1.4375 0.09375 C 1.207031 0.09375 1 0.0351562 0.8125 -0.078125 C 0.625 -0.191406 0.46875 -0.363281 0.34375 -0.59375 C 0.226562 -0.832031 0.171875 -1.113281 0.171875 -1.4375 C 0.171875 -1.75 0.226562 -2.023438 0.34375 -2.265625 C 0.457031 -2.515625 0.613281 -2.703125 0.8125 -2.828125 C 1.007812 -2.960938 1.238281 -3.03125 1.5 -3.03125 Z M 1.328125 -2.8125 C 1.140625 -2.8125 0.984375 -2.738281 0.859375 -2.59375 C 0.734375 -2.457031 0.65625 -2.269531 0.625 -2.03125 L 1.96875 -2.03125 C 1.957031 -2.269531 1.894531 -2.457031 1.78125 -2.59375 C 1.675781 -2.738281 1.523438 -2.8125 1.328125 -2.8125 Z M 1.328125 -2.8125"/></g></g></g><g fill-opacity="1" fill="#000000"><g transform="translate(90.122416, 32.480135)"><g><path d="M 1.203125 -3.03125 C 1.328125 -3.03125 1.453125 -3.007812 1.578125 -2.96875 C 1.671875 -2.9375 1.742188 -2.921875 1.796875 -2.921875 C 1.835938 -2.921875 1.878906 -2.9375 1.921875 -2.96875 L 2.03125 -2.96875 L 2.03125 -2.0625 L 1.921875 -2.0625 C 1.878906 -2.300781 1.789062 -2.492188 1.65625 -2.640625 C 1.53125 -2.785156 1.375 -2.859375 1.1875 -2.859375 C 1.039062 -2.859375 0.914062 -2.820312 0.8125 -2.75 C 0.71875 -2.675781 0.671875 -2.578125 0.671875 -2.453125 C 0.671875 -2.359375 0.695312 -2.273438 0.75 -2.203125 C 0.8125 -2.128906 0.890625 -2.0625 0.984375 -2 C 1.078125 -1.945312 1.226562 -1.863281 1.4375 -1.75 C 1.695312 -1.613281 1.894531 -1.476562 2.03125 -1.34375 C 2.175781 -1.207031 2.25 -1.023438 2.25 -0.796875 C 2.25 -0.585938 2.195312 -0.414062 2.09375 -0.28125 C 1.988281 -0.15625 1.863281 -0.0625 1.71875 0 C 1.570312 0.0625 1.429688 0.09375 1.296875 0.09375 C 1.171875 0.09375 1 0.0625 0.78125 0 C 0.675781 -0.03125 0.609375 -0.046875 0.578125 -0.046875 C 0.523438 -0.046875 0.488281 -0.03125 0.46875 0 L 0.328125 0 L 0.328125 -1 L 0.4375 -1 C 0.46875 -0.726562 0.5625 -0.507812 0.71875 -0.34375 C 0.882812 -0.1875 1.078125 -0.109375 1.296875 -0.109375 C 1.429688 -0.109375 1.546875 -0.148438 1.640625 -0.234375 C 1.742188 -0.316406 1.796875 -0.425781 1.796875 -0.5625 C 1.796875 -0.707031 1.753906 -0.820312 1.671875 -0.90625 C 1.585938 -0.988281 1.492188 -1.0625 1.390625 -1.125 C 1.285156 -1.1875 1.210938 -1.226562 1.171875 -1.25 C 1.160156 -1.257812 1.101562 -1.289062 1 -1.34375 C 0.84375 -1.425781 0.71875 -1.5 0.625 -1.5625 C 0.53125 -1.632812 0.453125 -1.722656 0.390625 -1.828125 C 0.335938 -1.941406 0.3125 -2.078125 0.3125 -2.234375 C 0.3125 -2.472656 0.394531 -2.664062 0.5625 -2.8125 C 0.726562 -2.957031 0.941406 -3.03125 1.203125 -3.03125 Z M 1.203125 -3.03125"/></g></g></g><g fill-opacity="1" fill="#000000"><g transform="translate(92.583191, 32.480135)"><g><path d="M 1.203125 -3.03125 C 1.328125 -3.03125 1.453125 -3.007812 1.578125 -2.96875 C 1.671875 -2.9375 1.742188 -2.921875 1.796875 -2.921875 C 1.835938 -2.921875 1.878906 -2.9375 1.921875 -2.96875 L 2.03125 -2.96875 L 2.03125 -2.0625 L 1.921875 -2.0625 C 1.878906 -2.300781 1.789062 -2.492188 1.65625 -2.640625 C 1.53125 -2.785156 1.375 -2.859375 1.1875 -2.859375 C 1.039062 -2.859375 0.914062 -2.820312 0.8125 -2.75 C 0.71875 -2.675781 0.671875 -2.578125 0.671875 -2.453125 C 0.671875 -2.359375 0.695312 -2.273438 0.75 -2.203125 C 0.8125 -2.128906 0.890625 -2.0625 0.984375 -2 C 1.078125 -1.945312 1.226562 -1.863281 1.4375 -1.75 C 1.695312 -1.613281 1.894531 -1.476562 2.03125 -1.34375 C 2.175781 -1.207031 2.25 -1.023438 2.25 -0.796875 C 2.25 -0.585938 2.195312 -0.414062 2.09375 -0.28125 C 1.988281 -0.15625 1.863281 -0.0625 1.71875 0 C 1.570312 0.0625 1.429688 0.09375 1.296875 0.09375 C 1.171875 0.09375 1 0.0625 0.78125 0 C 0.675781 -0.03125 0.609375 -0.046875 0.578125 -0.046875 C 0.523438 -0.046875 0.488281 -0.03125 0.46875 0 L 0.328125 0 L 0.328125 -1 L 0.4375 -1 C 0.46875 -0.726562 0.5625 -0.507812 0.71875 -0.34375 C 0.882812 -0.1875 1.078125 -0.109375 1.296875 -0.109375 C 1.429688 -0.109375 1.546875 -0.148438 1.640625 -0.234375 C 1.742188 -0.316406 1.796875 -0.425781 1.796875 -0.5625 C 1.796875 -0.707031 1.753906 -0.820312 1.671875 -0.90625 C 1.585938 -0.988281 1.492188 -1.0625 1.390625 -1.125 C 1.285156 -1.1875 1.210938 -1.226562 1.171875 -1.25 C 1.160156 -1.257812 1.101562 -1.289062 1 -1.34375 C 0.84375 -1.425781 0.71875 -1.5 0.625 -1.5625 C 0.53125 -1.632812 0.453125 -1.722656 0.390625 -1.828125 C 0.335938 -1.941406 0.3125 -2.078125 0.3125 -2.234375 C 0.3125 -2.472656 0.394531 -2.664062 0.5625 -2.8125 C 0.726562 -2.957031 0.941406 -3.03125 1.203125 -3.03125 Z M 1.203125 -3.03125"/></g></g></g><g fill-opacity="1" fill="#000000"><g transform="translate(95.043966, 32.480135)"><g><path d="M 1.53125 -3.03125 C 2.164062 -3.03125 2.484375 -2.773438 2.484375 -2.265625 L 2.484375 -0.578125 C 2.484375 -0.460938 2.5 -0.382812 2.53125 -0.34375 C 2.570312 -0.3125 2.617188 -0.296875 2.671875 -0.296875 C 2.734375 -0.296875 2.789062 -0.3125 2.84375 -0.34375 C 2.90625 -0.382812 2.988281 -0.457031 3.09375 -0.5625 L 3.09375 -0.390625 C 2.925781 -0.210938 2.789062 -0.0859375 2.6875 -0.015625 C 2.582031 0.0546875 2.476562 0.09375 2.375 0.09375 C 2.25 0.09375 2.148438 0.0507812 2.078125 -0.03125 C 2.003906 -0.125 1.96875 -0.253906 1.96875 -0.421875 C 1.78125 -0.242188 1.601562 -0.113281 1.4375 -0.03125 C 1.28125 0.0507812 1.109375 0.09375 0.921875 0.09375 C 0.734375 0.09375 0.570312 0.0234375 0.4375 -0.109375 C 0.3125 -0.253906 0.25 -0.425781 0.25 -0.625 C 0.25 -0.96875 0.429688 -1.234375 0.796875 -1.421875 C 1.140625 -1.609375 1.53125 -1.78125 1.96875 -1.9375 L 1.96875 -2.109375 C 1.96875 -2.273438 1.953125 -2.410156 1.921875 -2.515625 C 1.898438 -2.617188 1.847656 -2.703125 1.765625 -2.765625 C 1.679688 -2.828125 1.554688 -2.859375 1.390625 -2.859375 C 1.222656 -2.859375 1.097656 -2.816406 1.015625 -2.734375 C 0.929688 -2.648438 0.890625 -2.550781 0.890625 -2.4375 L 0.90625 -2.265625 C 0.90625 -2.191406 0.878906 -2.128906 0.828125 -2.078125 C 0.785156 -2.035156 0.726562 -2.015625 0.65625 -2.015625 C 0.570312 -2.015625 0.503906 -2.035156 0.453125 -2.078125 C 0.398438 -2.128906 0.375 -2.195312 0.375 -2.28125 C 0.375 -2.5 0.472656 -2.675781 0.671875 -2.8125 C 0.878906 -2.957031 1.164062 -3.03125 1.53125 -3.03125 Z M 0.796875 -0.796875 C 0.796875 -0.648438 0.84375 -0.523438 0.9375 -0.421875 C 1.03125 -0.328125 1.144531 -0.28125 1.28125 -0.28125 C 1.5 -0.28125 1.726562 -0.382812 1.96875 -0.59375 L 1.96875 -1.75 C 1.664062 -1.632812 1.429688 -1.53125 1.265625 -1.4375 C 1.109375 -1.34375 0.988281 -1.242188 0.90625 -1.140625 C 0.832031 -1.046875 0.796875 -0.929688 0.796875 -0.796875 Z M 0.796875 -0.796875"/></g></g></g><g fill-opacity="1" fill="#000000"><g transform="translate(98.239784, 32.480135)"><g><path d="M 1.625 -3.03125 C 1.863281 -3.03125 2.082031 -2.96875 2.28125 -2.84375 L 2.984375 -2.84375 C 3.035156 -2.84375 3.066406 -2.832031 3.078125 -2.8125 C 3.085938 -2.800781 3.09375 -2.757812 3.09375 -2.6875 C 3.09375 -2.625 3.085938 -2.582031 3.078125 -2.5625 C 3.078125 -2.550781 3.054688 -2.546875 3.015625 -2.546875 L 2.53125 -2.546875 C 2.582031 -2.453125 2.617188 -2.363281 2.640625 -2.28125 C 2.671875 -2.207031 2.6875 -2.113281 2.6875 -2 C 2.6875 -1.8125 2.640625 -1.640625 2.546875 -1.484375 C 2.453125 -1.328125 2.320312 -1.203125 2.15625 -1.109375 C 1.988281 -1.023438 1.796875 -0.984375 1.578125 -0.984375 C 1.441406 -0.984375 1.300781 -1.003906 1.15625 -1.046875 C 0.988281 -0.890625 0.90625 -0.765625 0.90625 -0.671875 C 0.90625 -0.609375 0.9375 -0.5625 1 -0.53125 C 1.0625 -0.5 1.191406 -0.484375 1.390625 -0.484375 L 2.109375 -0.484375 C 2.367188 -0.484375 2.59375 -0.425781 2.78125 -0.3125 C 2.976562 -0.195312 3.078125 -0.0351562 3.078125 0.171875 C 3.078125 0.378906 3 0.570312 2.84375 0.75 C 2.6875 0.9375 2.484375 1.082031 2.234375 1.1875 C 1.984375 1.300781 1.710938 1.359375 1.421875 1.359375 C 1.222656 1.359375 1.03125 1.328125 0.84375 1.265625 C 0.65625 1.210938 0.5 1.140625 0.375 1.046875 C 0.257812 0.953125 0.203125 0.851562 0.203125 0.75 C 0.203125 0.664062 0.238281 0.566406 0.3125 0.453125 C 0.394531 0.347656 0.5625 0.171875 0.8125 -0.078125 C 0.59375 -0.140625 0.484375 -0.242188 0.484375 -0.390625 C 0.484375 -0.503906 0.53125 -0.617188 0.625 -0.734375 C 0.71875 -0.859375 0.84375 -0.984375 1 -1.109375 C 0.832031 -1.203125 0.703125 -1.328125 0.609375 -1.484375 C 0.515625 -1.640625 0.46875 -1.804688 0.46875 -1.984375 C 0.46875 -2.179688 0.515625 -2.359375 0.609375 -2.515625 C 0.710938 -2.679688 0.851562 -2.804688 1.03125 -2.890625 C 1.207031 -2.984375 1.40625 -3.03125 1.625 -3.03125 Z M 1.015625 -2.25 C 1.015625 -2.09375 1.035156 -1.929688 1.078125 -1.765625 C 1.117188 -1.597656 1.1875 -1.453125 1.28125 -1.328125 C 1.382812 -1.203125 1.519531 -1.140625 1.6875 -1.140625 C 1.820312 -1.140625 1.929688 -1.207031 2.015625 -1.34375 C 2.097656 -1.476562 2.140625 -1.648438 2.140625 -1.859375 C 2.140625 -1.984375 2.113281 -2.125 2.0625 -2.28125 C 2.019531 -2.4375 1.953125 -2.570312 1.859375 -2.6875 C 1.765625 -2.800781 1.640625 -2.859375 1.484375 -2.859375 C 1.359375 -2.859375 1.25 -2.800781 1.15625 -2.6875 C 1.0625 -2.582031 1.015625 -2.4375 1.015625 -2.25 Z M 1.984375 0 L 1.75 0 C 1.550781 0 1.390625 0 1.265625 0 C 1.148438 -0.0078125 1.046875 -0.0234375 0.953125 -0.046875 C 0.859375 0.0546875 0.785156 0.148438 0.734375 0.234375 C 0.691406 0.328125 0.671875 0.414062 0.671875 0.5 C 0.671875 0.65625 0.773438 0.769531 0.984375 0.84375 C 1.191406 0.925781 1.445312 0.96875 1.75 0.96875 C 1.96875 0.96875 2.160156 0.941406 2.328125 0.890625 C 2.492188 0.835938 2.625 0.757812 2.71875 0.65625 C 2.820312 0.5625 2.875 0.453125 2.875 0.328125 C 2.875 0.191406 2.800781 0.101562 2.65625 0.0625 C 2.519531 0.03125 2.296875 0.0078125 1.984375 0 Z M 1.984375 0"/></g></g></g><g fill-opacity="1" fill="#000000"><g transform="translate(101.435602, 32.480135)"><g><path d="M 1.5 -3.03125 C 1.832031 -3.03125 2.101562 -2.921875 2.3125 -2.703125 C 2.519531 -2.484375 2.625 -2.195312 2.625 -1.84375 L 0.609375 -1.84375 L 0.609375 -1.75 C 0.609375 -1.53125 0.648438 -1.316406 0.734375 -1.109375 C 0.828125 -0.898438 0.957031 -0.734375 1.125 -0.609375 C 1.289062 -0.484375 1.472656 -0.421875 1.671875 -0.421875 C 2.078125 -0.421875 2.363281 -0.644531 2.53125 -1.09375 L 2.625 -1.046875 C 2.550781 -0.691406 2.40625 -0.410156 2.1875 -0.203125 C 1.976562 -0.00390625 1.726562 0.09375 1.4375 0.09375 C 1.207031 0.09375 1 0.0351562 0.8125 -0.078125 C 0.625 -0.191406 0.46875 -0.363281 0.34375 -0.59375 C 0.226562 -0.832031 0.171875 -1.113281 0.171875 -1.4375 C 0.171875 -1.75 0.226562 -2.023438 0.34375 -2.265625 C 0.457031 -2.515625 0.613281 -2.703125 0.8125 -2.828125 C 1.007812 -2.960938 1.238281 -3.03125 1.5 -3.03125 Z M 1.328125 -2.8125 C 1.140625 -2.8125 0.984375 -2.738281 0.859375 -2.59375 C 0.734375 -2.457031 0.65625 -2.269531 0.625 -2.03125 L 1.96875 -2.03125 C 1.957031 -2.269531 1.894531 -2.457031 1.78125 -2.59375 C 1.675781 -2.738281 1.523438 -2.8125 1.328125 -2.8125 Z M 1.328125 -2.8125"/></g></g></g><g fill-opacity="1" fill="#000000"><g transform="translate(104.23514, 32.480135)"><g/></g></g><g fill-opacity="1" fill="#000000"><g transform="translate(105.833046, 32.480135)"><g><path d="M 1.171875 -0.84375 C 1.171875 -0.6875 1.21875 -0.554688 1.3125 -0.453125 C 1.40625 -0.359375 1.519531 -0.3125 1.65625 -0.3125 C 1.78125 -0.3125 1.910156 -0.34375 2.046875 -0.40625 C 2.179688 -0.476562 2.304688 -0.578125 2.421875 -0.703125 L 2.421875 -2.484375 C 2.421875 -2.722656 2.273438 -2.84375 1.984375 -2.84375 L 1.921875 -2.84375 L 1.921875 -2.96875 L 2.953125 -2.96875 L 2.953125 -0.6875 C 2.953125 -0.613281 2.972656 -0.535156 3.015625 -0.453125 C 3.054688 -0.378906 3.128906 -0.34375 3.234375 -0.34375 C 3.285156 -0.34375 3.351562 -0.359375 3.4375 -0.390625 L 3.4375 -0.265625 L 2.546875 0.078125 L 2.421875 0.078125 L 2.421875 -0.546875 L 2.40625 -0.546875 C 2.0625 -0.117188 1.726562 0.09375 1.40625 0.09375 C 1.25 0.09375 1.113281 0.0507812 1 -0.03125 C 0.882812 -0.113281 0.796875 -0.21875 0.734375 -0.34375 C 0.679688 -0.476562 0.65625 -0.609375 0.65625 -0.734375 L 0.65625 -2.421875 C 0.65625 -2.585938 0.613281 -2.695312 0.53125 -2.75 C 0.457031 -2.8125 0.34375 -2.84375 0.1875 -2.84375 L 0.109375 -2.84375 L 0.109375 -2.96875 L 1.171875 -2.96875 Z M 1.171875 -0.84375"/></g></g></g><g fill-opacity="1" fill="#000000"><g transform="translate(109.361231, 32.480135)"><g><path d="M 1.203125 -3.03125 C 1.328125 -3.03125 1.453125 -3.007812 1.578125 -2.96875 C 1.671875 -2.9375 1.742188 -2.921875 1.796875 -2.921875 C 1.835938 -2.921875 1.878906 -2.9375 1.921875 -2.96875 L 2.03125 -2.96875 L 2.03125 -2.0625 L 1.921875 -2.0625 C 1.878906 -2.300781 1.789062 -2.492188 1.65625 -2.640625 C 1.53125 -2.785156 1.375 -2.859375 1.1875 -2.859375 C 1.039062 -2.859375 0.914062 -2.820312 0.8125 -2.75 C 0.71875 -2.675781 0.671875 -2.578125 0.671875 -2.453125 C 0.671875 -2.359375 0.695312 -2.273438 0.75 -2.203125 C 0.8125 -2.128906 0.890625 -2.0625 0.984375 -2 C 1.078125 -1.945312 1.226562 -1.863281 1.4375 -1.75 C 1.695312 -1.613281 1.894531 -1.476562 2.03125 -1.34375 C 2.175781 -1.207031 2.25 -1.023438 2.25 -0.796875 C 2.25 -0.585938 2.195312 -0.414062 2.09375 -0.28125 C 1.988281 -0.15625 1.863281 -0.0625 1.71875 0 C 1.570312 0.0625 1.429688 0.09375 1.296875 0.09375 C 1.171875 0.09375 1 0.0625 0.78125 0 C 0.675781 -0.03125 0.609375 -0.046875 0.578125 -0.046875 C 0.523438 -0.046875 0.488281 -0.03125 0.46875 0 L 0.328125 0 L 0.328125 -1 L 0.4375 -1 C 0.46875 -0.726562 0.5625 -0.507812 0.71875 -0.34375 C 0.882812 -0.1875 1.078125 -0.109375 1.296875 -0.109375 C 1.429688 -0.109375 1.546875 -0.148438 1.640625 -0.234375 C 1.742188 -0.316406 1.796875 -0.425781 1.796875 -0.5625 C 1.796875 -0.707031 1.753906 -0.820312 1.671875 -0.90625 C 1.585938 -0.988281 1.492188 -1.0625 1.390625 -1.125 C 1.285156 -1.1875 1.210938 -1.226562 1.171875 -1.25 C 1.160156 -1.257812 1.101562 -1.289062 1 -1.34375 C 0.84375 -1.425781 0.71875 -1.5 0.625 -1.5625 C 0.53125 -1.632812 0.453125 -1.722656 0.390625 -1.828125 C 0.335938 -1.941406 0.3125 -2.078125 0.3125 -2.234375 C 0.3125 -2.472656 0.394531 -2.664062 0.5625 -2.8125 C 0.726562 -2.957031 0.941406 -3.03125 1.203125 -3.03125 Z M 1.203125 -3.03125"/></g></g></g><g fill-opacity="1" fill="#000000"><g transform="translate(111.822006, 32.480135)"><g/></g></g><g fill-opacity="1" fill="#000000"><g transform="translate(113.419911, 32.480135)"><g><path d="M 1.53125 -3.03125 C 2.164062 -3.03125 2.484375 -2.773438 2.484375 -2.265625 L 2.484375 -0.578125 C 2.484375 -0.460938 2.5 -0.382812 2.53125 -0.34375 C 2.570312 -0.3125 2.617188 -0.296875 2.671875 -0.296875 C 2.734375 -0.296875 2.789062 -0.3125 2.84375 -0.34375 C 2.90625 -0.382812 2.988281 -0.457031 3.09375 -0.5625 L 3.09375 -0.390625 C 2.925781 -0.210938 2.789062 -0.0859375 2.6875 -0.015625 C 2.582031 0.0546875 2.476562 0.09375 2.375 0.09375 C 2.25 0.09375 2.148438 0.0507812 2.078125 -0.03125 C 2.003906 -0.125 1.96875 -0.253906 1.96875 -0.421875 C 1.78125 -0.242188 1.601562 -0.113281 1.4375 -0.03125 C 1.28125 0.0507812 1.109375 0.09375 0.921875 0.09375 C 0.734375 0.09375 0.570312 0.0234375 0.4375 -0.109375 C 0.3125 -0.253906 0.25 -0.425781 0.25 -0.625 C 0.25 -0.96875 0.429688 -1.234375 0.796875 -1.421875 C 1.140625 -1.609375 1.53125 -1.78125 1.96875 -1.9375 L 1.96875 -2.109375 C 1.96875 -2.273438 1.953125 -2.410156 1.921875 -2.515625 C 1.898438 -2.617188 1.847656 -2.703125 1.765625 -2.765625 C 1.679688 -2.828125 1.554688 -2.859375 1.390625 -2.859375 C 1.222656 -2.859375 1.097656 -2.816406 1.015625 -2.734375 C 0.929688 -2.648438 0.890625 -2.550781 0.890625 -2.4375 L 0.90625 -2.265625 C 0.90625 -2.191406 0.878906 -2.128906 0.828125 -2.078125 C 0.785156 -2.035156 0.726562 -2.015625 0.65625 -2.015625 C 0.570312 -2.015625 0.503906 -2.035156 0.453125 -2.078125 C 0.398438 -2.128906 0.375 -2.195312 0.375 -2.28125 C 0.375 -2.5 0.472656 -2.675781 0.671875 -2.8125 C 0.878906 -2.957031 1.164062 -3.03125 1.53125 -3.03125 Z M 0.796875 -0.796875 C 0.796875 -0.648438 0.84375 -0.523438 0.9375 -0.421875 C 1.03125 -0.328125 1.144531 -0.28125 1.28125 -0.28125 C 1.5 -0.28125 1.726562 -0.382812 1.96875 -0.59375 L 1.96875 -1.75 C 1.664062 -1.632812 1.429688 -1.53125 1.265625 -1.4375 C 1.109375 -1.34375 0.988281 -1.242188 0.90625 -1.140625 C 0.832031 -1.046875 0.796875 -0.929688 0.796875 -0.796875 Z M 0.796875 -0.796875"/></g></g></g><g fill-opacity="1" fill="#000000"><g transform="translate(116.615729, 32.480135)"><g><path d="M 1.140625 -2.40625 C 1.359375 -2.644531 1.535156 -2.804688 1.671875 -2.890625 C 1.816406 -2.984375 1.976562 -3.03125 2.15625 -3.03125 C 2.34375 -3.03125 2.492188 -2.976562 2.609375 -2.875 C 2.722656 -2.78125 2.804688 -2.660156 2.859375 -2.515625 C 2.910156 -2.367188 2.9375 -2.226562 2.9375 -2.09375 L 2.9375 -0.671875 C 2.9375 -0.453125 2.96875 -0.304688 3.03125 -0.234375 C 3.101562 -0.160156 3.222656 -0.117188 3.390625 -0.109375 L 3.390625 0 L 1.890625 0 L 1.890625 -0.109375 C 2.023438 -0.109375 2.128906 -0.125 2.203125 -0.15625 C 2.273438 -0.1875 2.328125 -0.238281 2.359375 -0.3125 C 2.390625 -0.394531 2.40625 -0.515625 2.40625 -0.671875 L 2.40625 -2.109375 C 2.40625 -2.242188 2.359375 -2.367188 2.265625 -2.484375 C 2.179688 -2.597656 2.0625 -2.65625 1.90625 -2.65625 C 1.769531 -2.65625 1.640625 -2.617188 1.515625 -2.546875 C 1.398438 -2.484375 1.273438 -2.378906 1.140625 -2.234375 L 1.140625 -0.671875 C 1.140625 -0.453125 1.175781 -0.304688 1.25 -0.234375 C 1.320312 -0.160156 1.445312 -0.117188 1.625 -0.109375 L 1.625 0 L 0.15625 0 L 0.15625 -0.109375 C 0.289062 -0.128906 0.390625 -0.15625 0.453125 -0.1875 C 0.515625 -0.21875 0.554688 -0.269531 0.578125 -0.34375 C 0.609375 -0.414062 0.625 -0.519531 0.625 -0.65625 L 0.625 -2.25 C 0.625 -2.34375 0.597656 -2.425781 0.546875 -2.5 C 0.503906 -2.570312 0.4375 -2.609375 0.34375 -2.609375 C 0.300781 -2.609375 0.257812 -2.597656 0.21875 -2.578125 C 0.1875 -2.566406 0.164062 -2.5625 0.15625 -2.5625 L 0.109375 -2.6875 L 1.03125 -3.03125 L 1.140625 -3.03125 Z M 1.140625 -2.40625"/></g></g></g><g fill-opacity="1" fill="#000000"><g transform="translate(120.143915, 32.480135)"><g><path d="M 1.421875 -2.84375 C 1.296875 -2.84375 1.207031 -2.828125 1.15625 -2.796875 C 1.101562 -2.765625 1.078125 -2.703125 1.078125 -2.609375 C 1.078125 -2.535156 1.085938 -2.46875 1.109375 -2.40625 C 1.140625 -2.34375 1.160156 -2.304688 1.171875 -2.296875 L 1.859375 -0.734375 L 2.5 -2.453125 C 2.53125 -2.546875 2.546875 -2.613281 2.546875 -2.65625 C 2.546875 -2.726562 2.519531 -2.773438 2.46875 -2.796875 C 2.425781 -2.828125 2.351562 -2.84375 2.25 -2.84375 L 2.25 -2.96875 L 3.09375 -2.96875 L 3.09375 -2.84375 C 3.019531 -2.84375 2.953125 -2.8125 2.890625 -2.75 C 2.835938 -2.6875 2.789062 -2.597656 2.75 -2.484375 L 1.75 0.203125 C 1.632812 0.515625 1.492188 0.785156 1.328125 1.015625 C 1.171875 1.242188 0.945312 1.359375 0.65625 1.359375 C 0.53125 1.359375 0.425781 1.320312 0.34375 1.25 C 0.269531 1.1875 0.234375 1.101562 0.234375 1 C 0.234375 0.914062 0.265625 0.84375 0.328125 0.78125 C 0.390625 0.726562 0.46875 0.703125 0.5625 0.703125 C 0.625 0.703125 0.679688 0.710938 0.734375 0.734375 C 0.785156 0.753906 0.8125 0.769531 0.8125 0.78125 C 0.90625 0.8125 0.96875 0.828125 1 0.828125 C 1.113281 0.828125 1.21875 0.753906 1.3125 0.609375 C 1.40625 0.460938 1.507812 0.238281 1.625 -0.0625 L 0.703125 -2.109375 C 0.609375 -2.304688 0.535156 -2.445312 0.484375 -2.53125 C 0.441406 -2.625 0.390625 -2.695312 0.328125 -2.75 C 0.273438 -2.8125 0.203125 -2.84375 0.109375 -2.84375 L 0.109375 -2.96875 L 1.421875 -2.96875 Z M 1.421875 -2.84375"/></g></g></g><g fill-opacity="1" fill="#000000"><g transform="translate(123.339733, 32.480135)"><g/></g></g><g fill-opacity="1" fill="#000000"><g transform="translate(124.937638, 32.480135)"><g><path d="M 1.0625 -3.90625 L 1.15625 -3.90625 L 1.15625 -2.96875 L 1.828125 -2.96875 L 1.828125 -2.765625 L 1.15625 -2.765625 L 1.15625 -0.703125 C 1.15625 -0.597656 1.1875 -0.5 1.25 -0.40625 C 1.320312 -0.320312 1.414062 -0.28125 1.53125 -0.28125 C 1.601562 -0.28125 1.671875 -0.296875 1.734375 -0.328125 C 1.796875 -0.367188 1.859375 -0.4375 1.921875 -0.53125 L 2.046875 -0.53125 C 1.941406 -0.320312 1.820312 -0.164062 1.6875 -0.0625 C 1.5625 0.0390625 1.414062 0.09375 1.25 0.09375 C 1.0625 0.09375 0.910156 0.0234375 0.796875 -0.109375 C 0.691406 -0.253906 0.640625 -0.445312 0.640625 -0.6875 L 0.640625 -2.765625 L 0.1875 -2.765625 L 0.1875 -2.890625 C 0.40625 -2.984375 0.585938 -3.113281 0.734375 -3.28125 C 0.878906 -3.457031 0.988281 -3.664062 1.0625 -3.90625 Z M 1.0625 -3.90625"/></g></g></g><g fill-opacity="1" fill="#000000"><g transform="translate(127.066054, 32.480135)"><g><path d="M 0.875 -4.59375 C 0.96875 -4.59375 1.046875 -4.5625 1.109375 -4.5 C 1.171875 -4.4375 1.203125 -4.363281 1.203125 -4.28125 C 1.203125 -4.1875 1.171875 -4.101562 1.109375 -4.03125 C 1.046875 -3.96875 0.96875 -3.9375 0.875 -3.9375 C 0.78125 -3.9375 0.703125 -3.96875 0.640625 -4.03125 C 0.578125 -4.101562 0.546875 -4.1875 0.546875 -4.28125 C 0.546875 -4.363281 0.578125 -4.4375 0.640625 -4.5 C 0.703125 -4.5625 0.78125 -4.59375 0.875 -4.59375 Z M 1.15625 -0.671875 C 1.15625 -0.453125 1.1875 -0.304688 1.25 -0.234375 C 1.320312 -0.160156 1.429688 -0.117188 1.578125 -0.109375 L 1.578125 0 L 0.140625 0 L 0.140625 -0.109375 C 0.316406 -0.109375 0.441406 -0.148438 0.515625 -0.234375 C 0.585938 -0.316406 0.625 -0.460938 0.625 -0.671875 L 0.625 -2.21875 C 0.625 -2.332031 0.597656 -2.425781 0.546875 -2.5 C 0.492188 -2.570312 0.414062 -2.609375 0.3125 -2.609375 C 0.269531 -2.609375 0.226562 -2.597656 0.1875 -2.578125 L 0.140625 -2.703125 L 1.03125 -3.03125 L 1.15625 -3.03125 Z M 1.15625 -0.671875"/></g></g></g><g fill-opacity="1" fill="#000000"><g transform="translate(128.79819, 32.480135)"><g><path d="M 1.125 -3.03125 L 1.125 -2.421875 C 1.488281 -2.828125 1.816406 -3.03125 2.109375 -3.03125 C 2.304688 -3.03125 2.46875 -2.972656 2.59375 -2.859375 C 2.71875 -2.753906 2.804688 -2.597656 2.859375 -2.390625 C 3.179688 -2.816406 3.535156 -3.03125 3.921875 -3.03125 C 4.191406 -3.03125 4.390625 -2.929688 4.515625 -2.734375 C 4.640625 -2.535156 4.703125 -2.304688 4.703125 -2.046875 L 4.703125 -0.671875 C 4.703125 -0.515625 4.71875 -0.394531 4.75 -0.3125 C 4.78125 -0.238281 4.828125 -0.1875 4.890625 -0.15625 C 4.960938 -0.125 5.0625 -0.109375 5.1875 -0.109375 L 5.1875 0 L 3.671875 0 L 3.671875 -0.109375 C 3.804688 -0.109375 3.90625 -0.117188 3.96875 -0.140625 C 4.039062 -0.171875 4.09375 -0.226562 4.125 -0.3125 C 4.15625 -0.394531 4.171875 -0.519531 4.171875 -0.6875 L 4.171875 -2.109375 C 4.171875 -2.253906 4.125 -2.378906 4.03125 -2.484375 C 3.945312 -2.597656 3.820312 -2.65625 3.65625 -2.65625 C 3.519531 -2.65625 3.378906 -2.617188 3.234375 -2.546875 C 3.097656 -2.472656 2.984375 -2.375 2.890625 -2.25 L 2.90625 -1.875 L 2.90625 -0.671875 C 2.90625 -0.515625 2.921875 -0.394531 2.953125 -0.3125 C 2.992188 -0.238281 3.046875 -0.1875 3.109375 -0.15625 C 3.171875 -0.125 3.265625 -0.109375 3.390625 -0.109375 L 3.390625 0 L 1.875 0 L 1.875 -0.109375 C 2.007812 -0.109375 2.109375 -0.117188 2.171875 -0.140625 C 2.242188 -0.171875 2.296875 -0.222656 2.328125 -0.296875 C 2.367188 -0.378906 2.390625 -0.503906 2.390625 -0.671875 L 2.390625 -2.0625 C 2.390625 -2.207031 2.34375 -2.34375 2.25 -2.46875 C 2.164062 -2.59375 2.039062 -2.65625 1.875 -2.65625 C 1.757812 -2.65625 1.632812 -2.617188 1.5 -2.546875 C 1.375 -2.484375 1.25 -2.390625 1.125 -2.265625 L 1.125 -0.671875 C 1.125 -0.453125 1.15625 -0.300781 1.21875 -0.21875 C 1.289062 -0.144531 1.398438 -0.109375 1.546875 -0.109375 L 1.59375 -0.109375 L 1.59375 0 L 0.09375 0 L 0.09375 -0.109375 C 0.226562 -0.109375 0.328125 -0.117188 0.390625 -0.140625 C 0.460938 -0.171875 0.515625 -0.226562 0.546875 -0.3125 C 0.578125 -0.394531 0.59375 -0.515625 0.59375 -0.671875 L 0.59375 -2.1875 C 0.59375 -2.3125 0.566406 -2.414062 0.515625 -2.5 C 0.460938 -2.582031 0.382812 -2.625 0.28125 -2.625 C 0.207031 -2.625 0.144531 -2.613281 0.09375 -2.59375 L 0.046875 -2.703125 L 1.015625 -3.03125 Z M 1.125 -3.03125"/></g></g></g><g fill-opacity="1" fill="#000000"><g transform="translate(134.058503, 32.480135)"><g><path d="M 1.5 -3.03125 C 1.832031 -3.03125 2.101562 -2.921875 2.3125 -2.703125 C 2.519531 -2.484375 2.625 -2.195312 2.625 -1.84375 L 0.609375 -1.84375 L 0.609375 -1.75 C 0.609375 -1.53125 0.648438 -1.316406 0.734375 -1.109375 C 0.828125 -0.898438 0.957031 -0.734375 1.125 -0.609375 C 1.289062 -0.484375 1.472656 -0.421875 1.671875 -0.421875 C 2.078125 -0.421875 2.363281 -0.644531 2.53125 -1.09375 L 2.625 -1.046875 C 2.550781 -0.691406 2.40625 -0.410156 2.1875 -0.203125 C 1.976562 -0.00390625 1.726562 0.09375 1.4375 0.09375 C 1.207031 0.09375 1 0.0351562 0.8125 -0.078125 C 0.625 -0.191406 0.46875 -0.363281 0.34375 -0.59375 C 0.226562 -0.832031 0.171875 -1.113281 0.171875 -1.4375 C 0.171875 -1.75 0.226562 -2.023438 0.34375 -2.265625 C 0.457031 -2.515625 0.613281 -2.703125 0.8125 -2.828125 C 1.007812 -2.960938 1.238281 -3.03125 1.5 -3.03125 Z M 1.328125 -2.8125 C 1.140625 -2.8125 0.984375 -2.738281 0.859375 -2.59375 C 0.734375 -2.457031 0.65625 -2.269531 0.625 -2.03125 L 1.96875 -2.03125 C 1.957031 -2.269531 1.894531 -2.457031 1.78125 -2.59375 C 1.675781 -2.738281 1.523438 -2.8125 1.328125 -2.8125 Z M 1.328125 -2.8125"/></g></g></g></svg>